<svg width="500" height="500" viewBox="0 0 500 500" fill="none" xmlns="http://www.w3.org/2000/svg">
<path d="M500 382.398H0V382.648H500V382.398Z" fill="#EBEBEB"/>
<path d="M449.901 398.496H416.779V398.746H449.901V398.496Z" fill="#EBEBEB"/>
<path d="M331.22 401.211H322.527V401.461H331.22V401.211Z" fill="#EBEBEB"/>
<path d="M415.778 389.211H396.586V389.461H415.778V389.211Z" fill="#EBEBEB"/>
<path d="M95.652 390.891H52.459V391.141H95.652V390.891Z" fill="#EBEBEB"/>
<path d="M110.889 390.891H104.556V391.141H110.889V390.891Z" fill="#EBEBEB"/>
<path d="M225.147 395.113H131.471V395.363H225.147V395.113Z" fill="#EBEBEB"/>
<path d="M237.014 337.801H43.915C40.768 337.801 38.207 335.24 38.207 332.093V60.6611C38.207 57.5141 40.768 54.9531 43.915 54.9531H237.014C240.16 54.9531 242.721 57.5141 242.721 60.6611V332.093C242.721 335.24 240.16 337.801 237.014 337.801ZM43.915 55.2041C40.905 55.2041 38.457 57.6521 38.457 60.6621V332.094C38.457 335.104 40.905 337.552 43.915 337.552H237.014C240.023 337.552 242.471 335.104 242.471 332.094V60.6611C242.471 57.6521 240.023 55.2031 237.014 55.2031L43.915 55.2041Z" fill="#EBEBEB"/>
<path d="M453.31 337.801H260.212C257.065 337.801 254.505 335.24 254.505 332.093V60.6611C254.505 57.5141 257.066 54.9531 260.212 54.9531H453.31C456.458 54.9531 459.018 57.5141 459.018 60.6611V332.093C459.019 335.24 456.458 337.801 453.31 337.801ZM260.212 55.2041C257.203 55.2041 254.755 57.6521 254.755 60.6621V332.094C254.755 335.104 257.203 337.552 260.212 337.552H453.31C456.32 337.552 458.768 335.104 458.768 332.094V60.6611C458.768 57.6521 456.32 55.2031 453.31 55.2031L260.212 55.2041Z" fill="#EBEBEB"/>
<path d="M289.69 174.059H427.471V83.8315H289.69V174.059Z" fill="#E6E6E6"/>
<path d="M285.487 174.059H425.507V83.8315H285.487V174.059Z" fill="#F0F0F0"/>
<path d="M289.69 191.766H427.471V174.058H289.69V191.766Z" fill="#E6E6E6"/>
<path d="M278.484 191.766H418.504V174.058H278.484V191.766Z" fill="#F0F0F0"/>
<path d="M419.622 168.175V89.7189L291.373 89.7188V168.175H419.622Z" fill="#FAFAFA"/>
<path d="M390.702 168.175L374.322 89.7188H348.761L365.141 168.175H390.702Z" fill="white"/>
<path d="M416.897 162.317C417.129 162.317 417.318 162.129 417.318 161.897V93.5489C417.318 93.3169 417.13 93.1289 416.897 93.1289C416.665 93.1289 416.476 93.3169 416.476 93.5489V161.897C416.476 162.129 416.665 162.317 416.897 162.317Z" fill="#F0F0F0"/>
<path d="M359.65 168.175L343.27 89.7188H333.304L349.685 168.175H359.65Z" fill="white"/>
<path d="M292.12 168.175V89.7188H291.373V168.175H292.12Z" fill="#E6E6E6"/>
<path opacity="0.6" d="M284.095 98.5899H421.876L422.417 92.0039H284.636L284.095 98.5899Z" fill="#EBEBEB"/>
<path opacity="0.6" d="M284.095 109.395H421.876L422.417 102.809H284.636L284.095 109.395Z" fill="#EBEBEB"/>
<path opacity="0.6" d="M284.095 120.195H421.876L422.417 113.609H284.636L284.095 120.195Z" fill="#EBEBEB"/>
<path opacity="0.6" d="M284.095 130.996H421.876L422.417 124.41H284.636L284.095 130.996Z" fill="#EBEBEB"/>
<path opacity="0.6" d="M284.095 141.801H421.876L422.417 135.215H284.636L284.095 141.801Z" fill="#EBEBEB"/>
<path opacity="0.6" d="M284.095 152.602H421.876L422.417 146.016H284.636L284.095 152.602Z" fill="#EBEBEB"/>
<path d="M407.688 316.785H378.799V322.481H407.688V316.785Z" fill="#E6E6E6"/>
<path d="M324.308 382.402H329.641V251.337H324.308V382.402Z" fill="#E6E6E6"/>
<path d="M305.836 322.48H378.799V316.784H305.836V322.48Z" fill="#F5F5F5"/>
<path d="M407.688 347.949H378.799V353.645H407.688V347.949Z" fill="#E6E6E6"/>
<path d="M305.836 353.645H378.799V347.949H305.836V353.645Z" fill="#F5F5F5"/>
<path d="M407.688 254.449H378.799V260.145H407.688V254.449Z" fill="#E6E6E6"/>
<path d="M305.836 260.145H378.799V254.449H305.836V260.145Z" fill="#F5F5F5"/>
<path d="M407.688 285.617H378.799V291.313H407.688V285.617Z" fill="#E6E6E6"/>
<path d="M305.836 291.312H378.799V285.616H305.836V291.312Z" fill="#F5F5F5"/>
<path d="M397.271 382.402H402.604V251.337H397.271V382.402Z" fill="#E6E6E6"/>
<path d="M373.466 382.402H378.799V251.337H373.466V382.402Z" fill="#F5F5F5"/>
<path d="M305.835 382.402H311.168V251.337H305.835V382.402Z" fill="#F5F5F5"/>
<path d="M65.3735 382.398H119.951V276.506H65.3735V382.398Z" fill="#E6E6E6"/>
<path d="M79.948 382.399H65.374V367.781H95.228L79.948 382.399Z" fill="#FAFAFA"/>
<path d="M214.183 382.398H268.761V276.506H214.183V382.398Z" fill="#E6E6E6"/>
<path d="M65.3735 377.367H226.902V276.506H65.3735V377.367Z" fill="#FAFAFA"/>
<path d="M212.329 382.399H226.903V367.781H197.048L212.329 382.399Z" fill="#FAFAFA"/>
<path d="M76.6792 339.332H215.596V314.091H76.6792V339.332Z" fill="#F0F0F0"/>
<path d="M76.6792 369.969H215.596V344.728H76.6792V369.969Z" fill="#F0F0F0"/>
<path d="M103.084 316.791H189.192C191.719 316.791 193.768 314.742 193.768 312.214V311.906H98.5083V312.214C98.5083 314.742 100.557 316.791 103.084 316.791Z" fill="#FAFAFA"/>
<path d="M76.6792 308.699H215.596V283.458H76.6792V308.699Z" fill="#F0F0F0"/>
<path d="M103.084 286.155H189.192C191.719 286.155 193.768 284.106 193.768 281.578V281.27H98.5083V281.578C98.5083 284.106 100.557 286.155 103.084 286.155Z" fill="#FAFAFA"/>
<path d="M103.084 347.427H189.192C191.719 347.427 193.768 345.378 193.768 342.851V342.543H98.5083V342.851C98.5083 345.378 100.557 347.427 103.084 347.427Z" fill="#FAFAFA"/>
<path d="M74.0679 174.059H211.849V83.8315H74.0679V174.059Z" fill="#E6E6E6"/>
<path d="M69.8647 174.059H209.885V83.8315H69.8647V174.059Z" fill="#F0F0F0"/>
<path d="M74.0679 191.766H211.849V174.058H74.0679V191.766Z" fill="#E6E6E6"/>
<path d="M62.8604 191.766H202.88V174.058H62.8604V191.766Z" fill="#F0F0F0"/>
<path d="M204 168.175V89.7189L75.7505 89.7188V168.175H204Z" fill="#FAFAFA"/>
<path d="M175.08 168.175L158.699 89.7188H133.138L149.519 168.175H175.08Z" fill="white"/>
<path d="M201.274 162.317C201.506 162.317 201.694 162.129 201.694 161.897V93.5489C201.694 93.3169 201.506 93.1289 201.274 93.1289C201.042 93.1289 200.853 93.3169 200.853 93.5489V161.897C200.854 162.129 201.042 162.317 201.274 162.317Z" fill="#F0F0F0"/>
<path d="M144.028 168.175L127.647 89.7188H117.682L134.063 168.175H144.028Z" fill="white"/>
<path d="M76.4975 168.175V89.7188H75.7505V168.175H76.4975Z" fill="#E6E6E6"/>
<path opacity="0.6" d="M68.4722 98.5899H206.253L206.795 92.0039H69.0142L68.4722 98.5899Z" fill="#EBEBEB"/>
<path opacity="0.6" d="M68.4722 102.31H206.253L206.795 95.7227H69.0142L68.4722 102.31Z" fill="#EBEBEB"/>
<path opacity="0.6" d="M68.4722 106.024H206.253L206.795 99.4375H69.0142L68.4722 106.024Z" fill="#EBEBEB"/>
<path opacity="0.6" d="M68.4722 109.739H206.253L206.795 103.152H69.0142L68.4722 109.739Z" fill="#EBEBEB"/>
<path opacity="0.6" d="M68.4722 113.453H206.253L206.795 106.867H69.0142L68.4722 113.453Z" fill="#EBEBEB"/>
<path opacity="0.6" d="M68.4722 117.168H206.253L206.795 110.582H69.0142L68.4722 117.168Z" fill="#EBEBEB"/>
<path d="M96.0137 273.27H100.777V220.178H96.0137V273.27Z" fill="#F5F5F5"/>
<path d="M96.627 273.234H97.972V220.142H96.627V273.234Z" fill="#FAFAFA"/>
<path d="M98.5356 273.234H99.0626V220.142H98.5356V273.234Z" fill="#FAFAFA"/>
<path d="M80.7627 276.505H116.027C116.027 274.051 114.038 272.062 111.584 272.062H85.2057C82.7517 272.062 80.7627 274.051 80.7627 276.505Z" fill="#F0F0F0"/>
<path d="M89.8348 253.14C90.5888 253.14 91.2048 252.523 91.2048 251.77V216.96C91.2048 216.207 90.5878 215.59 89.8348 215.59C89.0808 215.59 88.4648 216.207 88.4648 216.96V251.77C88.4648 252.524 89.0808 253.14 89.8348 253.14Z" fill="#F0F0F0"/>
<path d="M77.0742 232.799H119.716L114.811 203H81.9792L77.0742 232.799Z" fill="#E0E0E0"/>
<path d="M250 427.56C357.082 427.56 443.889 422.491 443.889 416.237C443.889 409.984 357.082 404.914 250 404.914C142.918 404.914 56.1108 409.984 56.1108 416.237C56.1108 422.491 142.918 427.56 250 427.56Z" fill="#F5F5F5"/>
<path d="M104.108 202.362L103.11 202.434L104.438 220.875L105.435 220.803L104.108 202.362Z" fill="#407BFF"/>
<path d="M106.139 230.319L105.142 230.391L105.642 237.328L106.639 237.256L106.139 230.319Z" fill="#407BFF"/>
<path d="M337.711 315.162H123.553C118.709 315.162 114.461 311.199 114.112 306.355L103.589 160.225C103.24 155.381 106.918 151.418 111.762 151.418H325.92C330.764 151.418 335.012 155.381 335.361 160.225L345.884 306.355C346.232 311.199 342.555 315.162 337.711 315.162Z" fill="#407BFF"/>
<path d="M338.532 315.162H124.374C119.53 315.162 115.282 311.199 114.933 306.355L104.41 160.225C104.061 155.381 107.739 151.418 112.583 151.418H326.741C331.585 151.418 335.833 155.381 336.182 160.225L346.705 306.355C347.053 311.199 343.376 315.162 338.532 315.162Z" fill="#407BFF"/>
<path opacity="0.5" d="M338.532 315.162H124.374C119.53 315.162 115.282 311.199 114.933 306.355L104.41 160.225C104.061 155.381 107.739 151.418 112.583 151.418H326.741C331.585 151.418 335.833 155.381 336.182 160.225L346.705 306.355C347.053 311.199 343.376 315.162 338.532 315.162Z" fill="white"/>
<path d="M327.058 155.82H112.9C112.658 155.82 112.419 155.83 112.183 155.849C106.709 156.3 107.827 164.627 113.352 164.627H327.875C333.4 164.627 333.319 156.3 327.78 155.849C327.541 155.83 327.3 155.82 327.058 155.82Z" fill="#407BFF"/>
<path d="M118.478 160.226C118.558 161.341 117.72 162.245 116.604 162.245C115.489 162.245 114.52 161.341 114.44 160.226C114.36 159.111 115.198 158.207 116.314 158.207C117.43 158.207 118.398 159.11 118.478 160.226Z" fill="#FAFAFA"/>
<path d="M125.346 160.226C125.426 161.341 124.588 162.245 123.472 162.245C122.357 162.245 121.388 161.341 121.308 160.226C121.228 159.111 122.066 158.207 123.182 158.207C124.297 158.207 125.266 159.11 125.346 160.226Z" fill="#FAFAFA"/>
<path d="M132.214 160.226C132.294 161.341 131.455 162.245 130.34 162.245C129.225 162.245 128.256 161.341 128.175 160.226C128.095 159.111 128.934 158.207 130.049 158.207C131.164 158.207 132.133 159.11 132.214 160.226Z" fill="#FAFAFA"/>
<path d="M332.854 300.579H127.951C126.188 300.579 124.655 299.149 124.528 297.386L115.874 177.213C115.747 175.45 117.074 174.02 118.837 174.02H323.74C325.503 174.02 327.036 175.449 327.163 177.213L335.817 297.386C335.944 299.149 334.617 300.579 332.854 300.579Z" fill="white"/>
<path d="M246.53 254.798L243.195 208.479L233.087 202.395H205.283L209.057 254.798H246.53Z" fill="white"/>
<path d="M246.53 255.282H209.057C208.803 255.282 208.592 255.086 208.574 254.832L204.8 202.429C204.79 202.295 204.837 202.162 204.929 202.064C205.021 201.965 205.149 201.91 205.284 201.91H233.088C233.176 201.91 233.263 201.934 233.338 201.98L243.445 208.063C243.58 208.144 243.667 208.286 243.678 208.443L247.013 254.762C247.023 254.896 246.976 255.029 246.884 255.127C246.793 255.226 246.664 255.282 246.53 255.282ZM209.508 254.313H246.009L242.729 208.764L232.953 202.879H205.804L209.508 254.313Z" fill="#407BFF"/>
<path d="M243.195 208.479L233.087 202.395L236.798 210.455L243.195 208.479Z" fill="#EBEBEB"/>
<path d="M236.798 210.938C236.613 210.938 236.439 210.831 236.358 210.656L232.647 202.597C232.558 202.404 232.605 202.175 232.764 202.033C232.922 201.891 233.155 201.87 233.337 201.979L243.444 208.063C243.608 208.161 243.698 208.347 243.675 208.537C243.652 208.727 243.52 208.885 243.337 208.941L236.941 210.917C236.894 210.931 236.846 210.938 236.798 210.938ZM234.186 203.621L237.061 209.865L242.017 208.334L234.186 203.621Z" fill="#407BFF"/>
<path d="M220.969 226.004C221.053 227.173 220.174 228.121 219.004 228.121C217.834 228.121 216.819 227.173 216.735 226.004C216.651 224.835 217.53 223.887 218.699 223.887C219.868 223.887 220.885 224.835 220.969 226.004Z" fill="#407BFF"/>
<path d="M234.705 226.004C234.789 227.173 233.91 228.121 232.74 228.121C231.571 228.121 230.555 227.173 230.47 226.004C230.386 224.835 231.265 223.887 232.435 223.887C233.605 223.888 234.621 224.835 234.705 226.004Z" fill="#407BFF"/>
<path d="M238.58 239.734C238.328 239.734 238.116 239.539 238.097 239.284C237.852 235.88 232.514 233.111 226.197 233.111C222.012 233.111 218.255 234.355 216.391 236.358C215.562 237.249 215.179 238.209 215.251 239.214C215.27 239.481 215.069 239.713 214.802 239.732C214.534 239.749 214.303 239.55 214.284 239.283C214.193 238.017 214.676 236.777 215.681 235.697C217.722 233.503 221.751 232.141 226.197 232.141C233.126 232.141 238.778 235.248 239.064 239.213C239.083 239.48 238.882 239.712 238.615 239.731C238.603 239.734 238.591 239.734 238.58 239.734Z" fill="#407BFF"/>
<path d="M213.167 221.718C213.049 221.718 212.931 221.675 212.837 221.589C212.641 221.407 212.629 221.1 212.811 220.904L214.935 218.616C215.117 218.419 215.424 218.409 215.62 218.59C215.816 218.772 215.827 219.079 215.646 219.275L213.523 221.563C213.427 221.666 213.297 221.718 213.167 221.718Z" fill="#407BFF"/>
<path d="M237.584 221.718C237.466 221.718 237.347 221.675 237.253 221.588L234.8 219.3C234.604 219.118 234.594 218.811 234.776 218.615C234.958 218.419 235.265 218.409 235.461 218.591L237.914 220.879C238.11 221.061 238.12 221.368 237.938 221.564C237.843 221.666 237.714 221.718 237.584 221.718Z" fill="#407BFF"/>
<path d="M202.257 265.152H204.517L207.778 269.486L207.466 265.152H209.747L210.311 272.985H208.029L204.786 268.684L205.096 272.985H202.82L202.257 265.152Z" fill="#407BFF"/>
<path d="M211.334 269.072C211.242 267.793 211.526 266.798 212.188 266.085C212.849 265.373 213.816 265.016 215.087 265.016C216.391 265.016 217.42 265.366 218.176 266.066C218.932 266.766 219.355 267.746 219.446 269.007C219.512 269.922 219.412 270.673 219.146 271.259C218.88 271.845 218.468 272.301 217.909 272.627C217.35 272.953 216.636 273.116 215.767 273.116C214.884 273.116 214.142 272.975 213.543 272.694C212.944 272.413 212.443 271.967 212.039 271.358C211.635 270.75 211.4 269.988 211.334 269.072ZM213.755 269.083C213.812 269.874 214 270.442 214.318 270.787C214.637 271.133 215.049 271.305 215.555 271.305C216.075 271.305 216.465 271.136 216.726 270.797C216.987 270.459 217.085 269.851 217.022 268.975C216.969 268.238 216.781 267.699 216.459 267.359C216.137 267.019 215.721 266.849 215.212 266.849C214.724 266.849 214.345 267.022 214.074 267.367C213.804 267.714 213.698 268.285 213.755 269.083Z" fill="#407BFF"/>
<path d="M224.152 265.152H227.748C228.457 265.152 229.036 265.248 229.487 265.44C229.937 265.632 230.318 265.908 230.629 266.268C230.94 266.628 231.177 267.046 231.339 267.524C231.502 268.001 231.602 268.507 231.641 269.041C231.701 269.878 231.653 270.527 231.495 270.989C231.338 271.45 231.101 271.837 230.785 272.148C230.469 272.46 230.121 272.667 229.74 272.77C229.22 272.913 228.744 272.984 228.313 272.984H224.717L224.152 265.152ZM226.7 266.926L227.008 271.206H227.601C228.107 271.206 228.462 271.15 228.668 271.038C228.874 270.926 229.027 270.73 229.128 270.45C229.229 270.17 229.257 269.717 229.212 269.09C229.152 268.26 228.976 267.692 228.683 267.386C228.39 267.08 227.93 266.927 227.303 266.927H226.7V266.926Z" fill="#407BFF"/>
<path d="M237.448 271.688H234.7L234.411 272.981H231.94L234.32 265.148H236.96L240.467 272.981H237.932L237.448 271.688ZM236.824 269.995L235.756 267.179L235.103 269.995H236.824Z" fill="#407BFF"/>
<path d="M239.369 265.152H246.726L246.865 267.086H244.397L244.822 272.985H242.402L241.977 267.086H239.509L239.369 265.152Z" fill="#407BFF"/>
<path d="M252.365 271.688H249.617L249.328 272.981H246.857L249.237 265.148H251.877L255.384 272.981H252.849L252.365 271.688ZM251.741 269.995L250.674 267.179L250.021 269.995H251.741Z" fill="#407BFF"/>
<path d="M353.688 173.081C354.582 172.633 355.647 172.054 356.632 171.513C357.635 170.962 358.633 170.387 359.615 169.789C361.574 168.583 363.549 167.391 365.423 166.067C369.205 163.462 372.748 160.571 375.936 157.414C376.354 157.032 376.709 156.608 377.095 156.204L377.665 155.592L377.951 155.286L378.094 155.133C378.132 155.093 378.123 155.101 378.105 155.125L378.073 155.174C377.931 155.441 378.049 155.36 378.104 155.102C378.171 154.854 378.227 154.449 378.245 154.011C378.309 152.195 377.951 149.906 377.516 147.693C376.626 143.208 375.278 138.595 373.946 134.075L377.831 132.371C380.265 136.717 382.293 141.156 383.944 145.969C384.73 148.407 385.452 150.855 385.663 153.862C385.702 154.628 385.719 155.433 385.58 156.372C385.433 157.296 385.2 158.402 384.357 159.656L384.19 159.887L384.061 160.055L383.907 160.243L383.599 160.617L382.982 161.367C382.565 161.861 382.169 162.382 381.726 162.845C378.278 166.674 374.442 170.056 370.347 172.997C368.309 174.486 366.227 175.9 364.064 177.187C362.987 177.839 361.896 178.465 360.787 179.072C359.664 179.696 358.596 180.239 357.32 180.838L353.688 173.081Z" fill="#FFB573"/>
<path d="M344.794 408.178C345.568 408.178 346.414 408.018 347.005 407.878C347.082 407.86 347.141 407.798 347.155 407.719C347.169 407.641 347.135 407.562 347.069 407.519C346.782 407.33 344.239 405.689 343.264 406.13C343.11 406.2 342.917 406.353 342.869 406.688C342.806 407.132 342.917 407.486 343.198 407.742C343.555 408.068 344.15 408.178 344.794 408.178ZM346.444 407.595C344.986 407.886 343.889 407.836 343.465 407.449C343.285 407.285 343.218 407.054 343.262 406.743C343.285 406.576 343.363 406.521 343.427 406.492C343.94 406.26 345.407 406.968 346.444 407.595Z" fill="#407BFF"/>
<path d="M346.96 407.886C346.994 407.886 347.029 407.877 347.06 407.859C347.121 407.823 347.159 407.758 347.159 407.687C347.159 407.585 347.148 405.173 346.237 404.367C345.995 404.153 345.713 404.064 345.397 404.102C344.9 404.162 344.766 404.475 344.729 404.655C344.54 405.599 346.063 407.406 346.862 407.859C346.892 407.877 346.926 407.886 346.96 407.886ZM345.535 404.49C345.698 404.49 345.842 404.547 345.974 404.664C346.518 405.145 346.704 406.499 346.75 407.302C345.953 406.666 345.004 405.308 345.119 404.733C345.138 404.639 345.192 404.527 345.445 404.496C345.475 404.492 345.505 404.49 345.535 404.49Z" fill="#407BFF"/>
<path d="M346.223 148.066C345.249 153.036 343.195 163.103 346.673 166.42C346.673 166.42 345.314 171.462 336.079 171.462C325.924 171.462 331.226 166.421 331.226 166.421C336.769 165.097 336.626 160.985 335.66 157.123L346.223 148.066Z" fill="#FFB573"/>
<path d="M329.284 168.424C327.69 168.64 329.046 164.511 329.694 164.083C331.19 163.094 350.545 161.694 350.419 164.043C350.339 165.054 349.864 167.027 349.018 167.697C348.171 168.367 343.199 166.342 329.284 168.424Z" fill="#263238"/>
<path d="M332.437 167.033C331.171 167.461 331.291 163.3 331.722 162.799C332.72 161.641 348.386 157.616 348.851 159.893C349.03 160.876 349.116 162.84 348.579 163.603C348.042 164.365 343.439 163.104 332.437 167.033Z" fill="#263238"/>
<path d="M326.61 139.108C326.487 139.115 326.363 139.066 326.279 138.963C325.159 137.593 323.703 137.733 323.689 137.735C323.468 137.758 323.275 137.601 323.252 137.383C323.228 137.165 323.386 136.969 323.604 136.946C323.681 136.938 325.504 136.761 326.894 138.46C327.033 138.63 327.008 138.88 326.838 139.018C326.771 139.074 326.691 139.103 326.61 139.108Z" fill="#263238"/>
<path d="M324.672 144C324.672 144 323.816 147.007 322.697 148.527C323.666 149.268 325.138 148.741 325.138 148.741L324.672 144Z" fill="#FF5652"/>
<path d="M325.16 142.786C325.226 143.458 324.923 144.038 324.484 144.082C324.044 144.125 323.635 143.615 323.568 142.943C323.502 142.271 323.805 141.691 324.244 141.647C324.684 141.604 325.094 142.114 325.16 142.786Z" fill="#263238"/>
<path d="M324.443 141.666L322.782 141.359C322.782 141.359 323.735 142.54 324.443 141.666Z" fill="#263238"/>
<path d="M356.7 407.686H348.324L348.981 388.289H357.357L356.7 407.686Z" fill="#FFB573"/>
<path d="M347.661 406.715H357.071C357.413 406.715 357.691 406.953 357.739 407.287L358.811 414.732C358.922 415.504 358.258 416.235 357.468 416.222C354.187 416.166 352.606 415.973 348.468 415.973C345.922 415.973 342.202 416.237 338.687 416.237C335.248 416.237 334.984 412.76 336.448 412.446C343.012 411.034 344.049 409.087 346.261 407.23C346.659 406.895 347.16 406.715 347.661 406.715Z" fill="#263238"/>
<g opacity="0.2">
<path d="M357.359 388.293H348.979L348.645 398.292H357.025L357.359 388.293Z" fill="black"/>
</g>
<path d="M323.374 178.043C318.191 176.014 313.247 173.807 308.324 171.289C303.409 168.774 298.57 166.095 293.92 162.516C292.762 161.605 291.617 160.609 290.498 159.446C290.219 159.146 289.94 158.868 289.666 158.524C289.378 158.162 289.161 157.949 288.787 157.393C288.111 156.421 287.588 155.116 287.449 153.784C287.318 152.451 287.557 151.178 287.94 150.163C288.322 149.13 288.823 148.287 289.347 147.556C290.398 146.092 291.563 145.01 292.736 144.036C295.079 142.097 297.557 140.687 300.039 139.369C301.279 138.711 302.543 138.118 303.823 137.572C305.109 137.017 306.364 136.501 307.729 136.031L309.504 139.884C305.142 142.633 300.624 145.655 297.302 149.043C296.495 149.882 295.789 150.76 295.345 151.533C294.869 152.32 294.875 152.909 294.956 152.864C294.997 152.864 294.981 152.846 295.097 152.962L295.495 153.389C295.645 153.568 295.856 153.751 296.045 153.935C296.83 154.668 297.751 155.404 298.744 156.104C300.729 157.517 302.916 158.839 305.178 160.074C307.432 161.326 309.751 162.524 312.113 163.661C316.825 165.918 321.711 168.09 326.505 170.074L323.374 178.043Z" fill="#FFB573"/>
<path d="M311.969 137.155L313.354 134.151L307.058 131.965C307.058 131.965 305.097 137.868 307.434 140.592C309.424 140.273 311.125 138.985 311.969 137.155Z" fill="#FFB573"/>
<path d="M313.354 127.658L308.321 126.207L307.058 131.965L313.354 134.152V127.658Z" fill="#FFB573"/>
<path d="M378.35 134.442L379.084 127.422L372.596 128.947C372.596 128.947 372.501 135.527 375.933 136.576L378.35 134.442Z" fill="#FFB573"/>
<path d="M375.958 122.508L371.731 124.482L372.595 128.947L379.083 127.422L375.958 122.508Z" fill="#FFB573"/>
<path d="M347.54 138.257C347.845 146.564 348.152 150.074 344.398 154.723C338.752 161.715 328.481 160.273 325.7 152.224C323.197 144.979 323.118 132.611 330.878 128.529C338.523 124.509 347.235 129.949 347.54 138.257Z" fill="#FFB573"/>
<path d="M343.921 154.706C352.076 151.182 357.44 143.751 355.176 132.132C353.01 121.016 345.505 119.918 342.405 122.224C339.305 124.53 331.578 121.093 326.941 124.995C318.906 131.756 326.502 139.045 330.459 143.364C332.823 148.222 335.919 158.164 343.921 154.706Z" fill="#263238"/>
<path d="M340.535 130.138C343.287 134.123 348.565 135.248 352.325 132.651C356.085 130.055 356.902 124.72 354.15 120.735C351.398 116.75 346.12 115.625 342.36 118.222C338.6 120.818 337.783 126.153 340.535 130.138Z" fill="#407BFF"/>
<path d="M342.652 123.002C341.475 116.304 347.813 111.139 356.288 113.635C364.763 116.131 360.28 123.644 358.542 129.644C356.804 135.644 361.365 141.359 363.271 136.789C365.177 132.22 361.973 130.809 361.973 130.809C361.973 130.809 370.972 133.142 362.612 143.286C354.252 153.431 346.684 142.229 348.731 135.618C350.385 130.276 343.765 129.333 342.652 123.002Z" fill="#263238"/>
<path d="M334.182 125.532C330.313 123.514 323.761 121.882 320.032 128.155C318.269 131.121 318.952 135.144 318.952 135.144L330.341 135.902L334.182 125.532Z" fill="#263238"/>
<path d="M317.612 133.179C317.607 133.179 317.602 133.179 317.596 133.178C317.458 133.17 317.354 133.051 317.362 132.913C317.372 132.743 317.648 128.72 320.076 126.196C325.945 120.098 332.826 125.156 334.795 126.852C334.9 126.942 334.912 127.1 334.821 127.205C334.73 127.31 334.573 127.321 334.468 127.231C332.583 125.608 326.001 120.761 320.436 126.543C318.137 128.932 317.863 132.904 317.86 132.944C317.853 133.076 317.743 133.179 317.612 133.179Z" fill="#263238"/>
<path d="M331.853 143.032C331.841 144.65 331.116 146.234 330.198 147.309C328.816 148.925 327.232 148.129 326.869 146.337C326.542 144.724 326.866 141.94 328.613 140.964C330.333 140.003 331.867 141.182 331.853 143.032Z" fill="#FFB573"/>
<path d="M330.053 219.121C330.053 219.121 330.587 277.265 335.631 309.666C339.705 335.836 347.244 396.355 347.244 396.355H358.666C358.666 396.355 359.782 337.931 357.714 312.047C352.481 246.549 365.985 234.304 355.088 219.121H330.053Z" fill="#263238"/>
<path opacity="0.1" d="M330.053 219.121C330.053 219.121 330.587 277.265 335.631 309.666C339.705 335.836 347.244 396.355 347.244 396.355H358.666C358.666 396.355 359.782 337.931 357.714 312.047C352.481 246.549 365.985 234.304 355.088 219.121H330.053Z" fill="white"/>
<path opacity="0.3" d="M336.057 245.499C340.067 263.049 336.867 290.689 334.677 302.859C332.357 284.379 331.187 260.429 330.607 242.879C332.677 239.519 334.637 239.299 336.057 245.499Z" fill="black"/>
<path d="M345.681 396.582H360.23L360.994 391.478L345.598 390.957L345.681 396.582Z" fill="#407BFF"/>
<path d="M349.833 170.044C351.201 167.323 358.558 165.611 362.579 165.617L365.589 178.982C365.589 178.982 357.577 190.872 354.246 189.611C350.31 188.124 346.901 175.874 349.833 170.044Z" fill="#407BFF"/>
<path opacity="0.4" d="M349.833 170.044C351.201 167.323 358.558 165.611 362.579 165.617L365.589 178.982C365.589 178.982 357.577 190.872 354.246 189.611C350.31 188.124 346.901 175.874 349.833 170.044Z" fill="black"/>
<path d="M341.353 393.313C341.389 393.254 341.392 393.179 341.359 393.117C341.32 393.043 341.238 393.001 341.154 393.014C340.734 393.077 337.032 393.665 336.532 394.722C336.435 394.927 336.449 395.143 336.571 395.347C336.775 395.688 337.064 395.88 337.429 395.917C338.642 396.042 340.394 394.359 341.33 393.345C341.338 393.334 341.346 393.324 341.353 393.313ZM336.912 394.85C337.254 394.289 339.168 393.772 340.629 393.503C339.31 394.844 338.148 395.591 337.468 395.521C337.23 395.496 337.048 395.372 336.91 395.142C336.856 395.052 336.85 394.975 336.89 394.891C336.897 394.877 336.904 394.863 336.912 394.85Z" fill="#407BFF"/>
<path d="M341.353 393.315C341.361 393.303 341.367 393.289 341.371 393.275C341.394 393.209 341.379 393.135 341.334 393.082C341.271 393.009 339.788 391.3 338.421 391.211C338.002 391.184 337.636 391.308 337.331 391.581C336.92 391.949 336.955 392.269 337.058 392.472C337.491 393.33 340.151 393.629 341.224 393.406C341.278 393.394 341.324 393.361 341.353 393.315ZM337.438 392.056C337.469 392.005 337.519 391.945 337.596 391.876C337.821 391.674 338.083 391.586 338.395 391.607C339.293 391.666 340.314 392.595 340.778 393.068C339.593 393.168 337.672 392.808 337.412 392.293C337.397 392.262 337.358 392.186 337.438 392.056Z" fill="#407BFF"/>
<path d="M350.083 389.766L342.422 393.169L339.008 386.064L334.547 376.76L334.024 375.678L341.676 372.27L342.268 373.488L346.593 382.498L350.083 389.766Z" fill="#FFB573"/>
<path opacity="0.2" d="M346.593 382.498L339.008 386.064L334.547 376.76L342.268 373.488L346.593 382.498Z" fill="black"/>
<path d="M321.069 219.121C321.069 219.121 296.595 279.956 303.229 308.603C309.224 334.493 335.733 383.524 335.733 383.524L345.983 378.379C345.983 378.379 329.595 319.191 327.817 306.333C324.358 281.315 346.593 246 346.593 219.121H321.069Z" fill="#263238"/>
<path opacity="0.1" d="M321.069 219.121C321.069 219.121 296.595 279.956 303.229 308.603C309.224 334.493 335.733 383.524 335.733 383.524L345.983 378.379C345.983 378.379 329.595 319.191 327.817 306.333C324.358 281.315 346.593 246 346.593 219.121H321.069Z" fill="white"/>
<path d="M341.055 392.102L348.663 386.564C348.94 386.362 349.305 386.391 349.54 386.633L354.788 392.022C355.332 392.581 355.225 393.563 354.579 394.017C351.893 395.902 350.501 396.677 347.156 399.112C345.097 400.61 340.995 403.923 338.153 405.992C335.373 408.015 333.113 405.36 334.112 404.244C338.589 399.24 339.532 396.145 340.227 393.342C340.352 392.837 340.65 392.397 341.055 392.102Z" fill="#263238"/>
<path d="M335.073 385.693L348.304 379.641L346.606 374.25L332.438 380.712L335.073 385.693Z" fill="#407BFF"/>
<path d="M327.564 169.361C326.466 166.52 316.907 163.404 312.112 162.316L310.005 178.084C310.005 178.084 317.836 189.339 321.275 188.408C325.335 187.309 329.916 175.448 327.564 169.361Z" fill="#407BFF"/>
<path opacity="0.4" d="M327.564 169.361C326.466 166.52 316.907 163.404 312.112 162.316L310.005 178.084C310.005 178.084 317.836 189.339 321.275 188.408C325.335 187.309 329.916 175.448 327.564 169.361Z" fill="black"/>
<path d="M317.066 168.566C317.066 168.566 313.076 169.971 321.069 219.121C334.568 219.121 348.52 219.121 355.088 219.121C354.517 205.275 354.501 196.738 361.118 168.323C361.118 168.323 353.99 166.772 346.672 166.42C340.947 166.144 336.257 165.961 331.224 166.421C324.591 167.026 317.066 168.566 317.066 168.566Z" fill="#407BFF"/>
<path opacity="0.4" d="M317.066 168.566C317.066 168.566 313.076 169.971 321.069 219.121C334.568 219.121 348.52 219.121 355.088 219.121C354.517 205.275 354.501 196.738 361.118 168.323C361.118 168.323 353.99 166.772 346.672 166.42C340.947 166.144 336.257 165.961 331.224 166.421C324.591 167.026 317.066 168.566 317.066 168.566Z" fill="black"/>
<path d="M355.598 217.127L357.132 220.172C357.251 220.408 356.971 220.649 356.578 220.649H320.901C320.594 220.649 320.34 220.499 320.321 220.306L320.014 217.261C319.993 217.05 320.259 216.871 320.594 216.871H355.044C355.297 216.872 355.521 216.975 355.598 217.127Z" fill="#407BFF"/>
<path opacity="0.3" d="M355.598 217.127L357.132 220.172C357.251 220.408 356.971 220.649 356.578 220.649H320.901C320.594 220.649 320.34 220.499 320.321 220.306L320.014 217.261C319.993 217.05 320.259 216.871 320.594 216.871H355.044C355.297 216.872 355.521 216.975 355.598 217.127Z" fill="white"/>
<path d="M350.971 220.978H351.894C352.078 220.978 352.218 220.883 352.205 220.768L351.772 216.812C351.759 216.696 351.599 216.602 351.415 216.602H350.492C350.308 216.602 350.168 216.697 350.181 216.812L350.614 220.768C350.627 220.884 350.788 220.978 350.971 220.978Z" fill="#263238"/>
<path d="M328.608 220.978H329.531C329.715 220.978 329.855 220.883 329.842 220.768L329.409 216.812C329.396 216.696 329.236 216.602 329.052 216.602H328.129C327.945 216.602 327.805 216.697 327.818 216.812L328.251 220.768C328.263 220.884 328.424 220.978 328.608 220.978Z" fill="#263238"/>
</svg>
