<svg xmlns="http://www.w3.org/2000/svg" xmlns:xlink="http://www.w3.org/1999/xlink" viewBox="0 0 354.35 342.03"><defs><style>.cls-1{fill:url(#linear-gradient);}.cls-2{fill:url(#linear-gradient-2);}.cls-3{fill:url(#New_Gradient_Swatch_66);}.cls-4{fill:url(#linear-gradient-3);}.cls-5{fill:url(#New_Gradient_Swatch_66-2);}.cls-6{fill:url(#radial-gradient);}.cls-7{fill:url(#radial-gradient-2);}.cls-8{fill:url(#New_Gradient_Swatch_66-3);}.cls-9{fill:url(#New_Gradient_Swatch_66-4);}.cls-10{fill:url(#radial-gradient-3);}.cls-11{fill:url(#radial-gradient-4);}.cls-12{fill:url(#New_Gradient_Swatch_66-5);}.cls-13{fill:url(#New_Gradient_Swatch_66-6);}.cls-14{fill:url(#radial-gradient-5);}.cls-15{fill:url(#radial-gradient-6);}.cls-16{fill:#231f20;opacity:0.36;}.cls-17{stroke:#231f20;stroke-miterlimit:10;fill:url(#New_Gradient_Swatch_88);}</style><linearGradient id="linear-gradient" x1="93.77" y1="1888.95" x2="146.14" y2="1869.26" gradientTransform="translate(1682.58 1263.43) rotate(124.4)" gradientUnits="userSpaceOnUse"><stop offset="0" stop-color="#fff"/><stop offset="0.02" stop-color="#f8f9fa"/><stop offset="0.16" stop-color="#c2cbd3"/><stop offset="0.31" stop-color="#96a4b2"/><stop offset="0.44" stop-color="#738799"/><stop offset="0.57" stop-color="#5a7187"/><stop offset="0.68" stop-color="#4b647c"/><stop offset="0.78" stop-color="#466078"/></linearGradient><linearGradient id="linear-gradient-2" x1="-120.43" y1="1943.02" x2="-137.52" y2="1990.55" xlink:href="#linear-gradient"/><radialGradient id="New_Gradient_Swatch_66" cx="-44.61" cy="1691.88" r="163.02" gradientTransform="translate(1682.58 1263.43) rotate(124.4)" gradientUnits="userSpaceOnUse"><stop offset="0" stop-color="#fff"/><stop offset="0.02" stop-color="#f5f6f8"/><stop offset="0.15" stop-color="#c7cfd6"/><stop offset="0.28" stop-color="#9fadb9"/><stop offset="0.41" stop-color="#7f91a2"/><stop offset="0.54" stop-color="#667b8f"/><stop offset="0.68" stop-color="#546c82"/><stop offset="0.83" stop-color="#49637a"/><stop offset="1" stop-color="#466078"/></radialGradient><linearGradient id="linear-gradient-3" x1="-63.76" y1="1723.82" x2="-97.06" y2="1683.65" xlink:href="#linear-gradient"/><radialGradient id="New_Gradient_Swatch_66-2" cx="-72.91" cy="1768.8" r="48.74" xlink:href="#New_Gradient_Swatch_66"/><radialGradient id="radial-gradient" cx="24.52" cy="1775.96" r="132.32" gradientTransform="translate(1682.58 1263.43) rotate(124.4)" gradientUnits="userSpaceOnUse"><stop offset="0" stop-color="#466078"/><stop offset="0.07" stop-color="#4b647c"/><stop offset="0.14" stop-color="#597086"/><stop offset="0.23" stop-color="#718597"/><stop offset="0.32" stop-color="#92a1af"/><stop offset="0.41" stop-color="#bcc6ce"/><stop offset="0.5" stop-color="#eff2f4"/><stop offset="0.53" stop-color="#fff"/><stop offset="0.57" stop-color="#e3e7eb"/><stop offset="0.64" stop-color="#b4bec8"/><stop offset="0.72" stop-color="#8c9cab"/><stop offset="0.79" stop-color="#6d8295"/><stop offset="0.87" stop-color="#586f85"/><stop offset="0.94" stop-color="#4a647b"/><stop offset="1" stop-color="#466078"/></radialGradient><radialGradient id="radial-gradient-2" cx="23.05" cy="1740.59" r="257.53" gradientTransform="translate(1682.58 1263.43) rotate(124.4)" gradientUnits="userSpaceOnUse"><stop offset="0.01" stop-color="#fff"/><stop offset="0.13" stop-color="#04bfff"/><stop offset="0.15" stop-color="#04a3df"/><stop offset="0.19" stop-color="#047fb5"/><stop offset="0.23" stop-color="#045f90"/><stop offset="0.27" stop-color="#044673"/><stop offset="0.31" stop-color="#04325c"/><stop offset="0.35" stop-color="#04244c"/><stop offset="0.4" stop-color="#041c42"/><stop offset="0.47" stop-color="#04193f"/></radialGradient><radialGradient id="New_Gradient_Swatch_66-3" cx="-170.86" cy="1945.92" r="95.19" xlink:href="#New_Gradient_Swatch_66"/><radialGradient id="New_Gradient_Swatch_66-4" cx="-512.05" cy="454.71" r="48.72" gradientTransform="translate(673.99 -313.72) rotate(3.7)" xlink:href="#New_Gradient_Swatch_66"/><radialGradient id="radial-gradient-3" cx="-414.61" cy="461.87" r="132.32" gradientTransform="translate(673.99 -313.72) rotate(3.7)" xlink:href="#radial-gradient"/><radialGradient id="radial-gradient-4" cx="-166.4" cy="1880.56" r="296.76" xlink:href="#radial-gradient-2"/><radialGradient id="New_Gradient_Swatch_66-5" cx="122.91" cy="1909.96" r="179.89" xlink:href="#New_Gradient_Swatch_66"/><radialGradient id="New_Gradient_Swatch_66-6" cx="463.3" cy="1008.33" r="48.75" gradientTransform="translate(-580.57 1131.53) rotate(-116.39)" xlink:href="#New_Gradient_Swatch_66"/><radialGradient id="radial-gradient-5" cx="560.74" cy="1015.49" r="132.32" gradientTransform="translate(-580.57 1131.53) rotate(-116.39)" xlink:href="#radial-gradient"/><radialGradient id="radial-gradient-6" cx="23.23" cy="1963.26" r="281.01" xlink:href="#radial-gradient-2"/><radialGradient id="New_Gradient_Swatch_88" cx="179.63" cy="191.6" r="65.29" gradientUnits="userSpaceOnUse"><stop offset="0.01" stop-color="#fff"/><stop offset="0.16" stop-color="#04bfff"/><stop offset="0.2" stop-color="#04aeec"/><stop offset="0.32" stop-color="#0481b8"/><stop offset="0.43" stop-color="#045c8c"/><stop offset="0.54" stop-color="#043f6b"/><stop offset="0.65" stop-color="#042a53"/><stop offset="0.74" stop-color="#041d44"/><stop offset="0.82" stop-color="#04193f"/></radialGradient></defs><g id="Layer_2" data-name="Layer 2"><g id="Layer_1-2" data-name="Layer 1"><path class="cls-1" d="M89.06,294.81A126.22,126.22,0,0,1,77.2,283.94c-4.11,4.51-21,21.5-35.07,12.57C48.23,307.72,62.17,321.33,89.06,294.81Z"/><path class="cls-2" d="M131.37,67.78q4.17-1.45,8.43-2.61c-1.93-5.76-8.57-28.82,6.1-36.77-12.77-.12-31.47,5.42-21.37,41.85C126.89,69.32,129.21,68.5,131.37,67.78Z"/><path class="cls-3" d="M182.77,312.5l.23,0,.4,0,.53.06.61.05h.1c.19,0,.4,0,.62.06l.24,0,.61.05h.23c.24,0,.47.05.72.06h.26l.78,0c.14,0,.3,0,.45,0l.68,0,.66,0,.55,0,.82,0,.52,0H192l.65,0,.59,0,.81,0h.76l.73,0,.91,0h.72l1,0h8.05l.48,0,1.12,0c.34,0,.67,0,1,0l1.09,0,1.09-.05c.35,0,.71,0,1.07-.05l1.16-.06,1.06,0,.52,0,.69,0,1.1-.08c.4,0,.8-.05,1.19-.09l1.17-.09,1.21-.09,1.19-.11c.41,0,.85-.07,1.27-.12l1.14-.1.53-.06c.28,0,.55-.07.83-.09l1.16-.13,1.32-.16,1.24-.15,1.3-.17,1.28-.17,1.32-.19,1.3-.19.48-.07.86-.13,1.33-.22,1.34-.22,1.34-.24c.45-.07.91-.16,1.36-.25l1.36-.25,1.39-.26a9,9,0,0,1,.93-.19,3.29,3.29,0,0,1,.43-.09l.44-.09.95-.21,1.38-.3,1.41-.32,1.38-.31,1.44-.36,1.37-.33c.48-.14,1-.26,1.46-.39s.91-.24,1.37-.36l1.48-.41c.45-.13.91-.25,1.36-.39l1.5-.44c.45-.13.89-.26,1.35-.41s1-.31,1.51-.47l1.36-.43,1.5-.5,1.38-.46.34-.13,1.12-.39,1.42-.52c.48-.17,1-.36,1.44-.54l1.44-.55,1.43-.56,1.44-.58c.47-.19.95-.41,1.43-.61l1.43-.6c.49-.21,1-.43,1.44-.65l1.42-.64,1.44-.67,1.41-.67c.48-.23.95-.48,1.44-.72l1.4-.7c.47-.25.94-.49,1.4-.75s.8-.4,1.2-.62l.22-.13.22-.11c.39-.21.77-.42,1.16-.65s.95-.53,1.42-.8.91-.52,1.36-.8,1-.55,1.42-.84.9-.55,1.36-.83.94-.58,1.4-.88.9-.58,1.34-.88.93-.6,1.39-.92.89-.61,1.33-.91l1.37-1,1.34-1c.44-.32.89-.64,1.32-1s.91-.69,1.35-1l1.29-1,1.37-1.11,1.22-1,.11-.09c.42-.35.84-.72,1.26-1.09l1.2-1c.44-.39.88-.81,1.33-1.22l1.18-1.07,1.29-1.26c.39-.38.79-.75,1.18-1.14s.83-.85,1.25-1.28.78-.78,1.17-1.2.82-.88,1.23-1.33l1.14-1.24c.41-.46.82-.95,1.24-1.42s.72-.82,1.07-1.24.89-1.08,1.33-1.62c.3-.38.62-.75.93-1.14.75-.94,1.48-1.9,2.2-2.86H330c20.14-34-28.4-50.2-28.4-50.2l-1.28,7.39c41.33,13,29,35.48,21.19,45-.21.26-.43.5-.65.76l-1.14,1.23-1.23,1.34c-.39.41-.78.8-1.17,1.19s-.84.87-1.26,1.29L314.87,267l-1.28,1.25-1.18,1.07c-.45.41-.89.83-1.34,1.23l-1.19,1c-.42.36-.84.74-1.26,1.09l-.11.1-1.22,1-1.37,1.11-1.29,1-1.34,1c-.44.33-.89.65-1.34,1l-1.33,1-1.37,1-1.33.92-1.39.92-1.34.87-1.4.88-1.36.84-1.42.84-1.36.8c-.47.27-.95.54-1.43.79s-.76.45-1.15.66l-.22.1-.22.14-1.2.62L284,289l-1.41.7c-.48.25-.95.49-1.43.72l-1.41.67-1.44.68-1.42.64-1.44.64c-.47.21-1,.41-1.44.61s-1,.4-1.42.6l-1.45.58-1.43.57-1.43.55-1.44.54-1.42.51-1.12.4c-.11,0-.23.07-.34.12l-1.38.47c-.51.16-1,.33-1.5.5l-1.36.43-1.51.47-1.36.4c-.49.16-1,.3-1.5.45l-1.35.39-1.49.41-1.36.36-1.46.38-1.38.33-1.43.35-1.38.32c-.47.12-.94.22-1.41.32s-.92.21-1.38.3l-1,.21-.44.09c-.15,0-.29.05-.43.09L240,304l-1.38.27-1.35.25-1.37.25-1.34.23c-.45.08-.9.16-1.34.22l-1.33.22-.86.13-.48.07-1.3.19-1.32.2c-.43.05-.86.1-1.28.17l-1.3.16-1.24.16-1.33.15-1.15.13c-.28,0-.56.06-.83.09l-.53,0-1.14.12-1.28.12-1.19.1-1.2.1-1.17.09-1.19.09-1.1.07-.69,0-.52,0-1.06.05-1.16.06-1.08.06-1.08.05-1.09,0-1,0-1.12,0h-9.54l-.7,0-.92,0-.73,0-.76,0-.82,0c-.19,0-.39,0-.58,0l-.65,0h-.21l-.53,0-.81,0h-.25l-4,4.71Z"/><path class="cls-4" d="M300.41,214.79l0-.2a132.66,132.66,0,0,1-4.07,16c6,1.54,29.28,8.65,27.94,25.54C331.48,245.35,337.11,226.35,300.41,214.79Z"/><polygon class="cls-5" points="254.73 190.76 262.64 199.08 271.05 184.32 261.15 173.91 254.73 190.76"/><path class="cls-6" d="M262.64,199.08c-.12.94-.26,1.87-.4,2.8,0,.24-.08.49-.11.74-.12.76-.25,1.53-.39,2.28,0,.17-.05.34-.08.51-.16.9-.34,1.78-.53,2.66,0,.21-.08.41-.12.61q-.24,1.08-.48,2.13c0,.21-.09.43-.14.64-.21.86-.42,1.72-.64,2.56,0,.11-.05.22-.09.33-.2.76-.4,1.49-.61,2.22-.06.22-.13.44-.19.65-.23.77-.45,1.53-.69,2.3a.85.85,0,0,0-.06.17c-.26.81-.53,1.61-.8,2.41-.07.21-.15.4-.22.6-.23.64-.46,1.29-.7,1.93l-.18.48c-.29.77-.6,1.53-.9,2.28-.07.16-.13.32-.2.47q-.37.93-.78,1.83c-.08.2-.17.39-.25.58-.33.74-.66,1.46-1,2.18a1.51,1.51,0,0,0-.09.18c-.32.66-.64,1.31-1,2l-.3.59c-.29.59-.6,1.18-.91,1.76-.07.11-.12.22-.19.34-.36.67-.73,1.34-1.11,2-.1.19-.22.37-.32.55-.3.51-.59,1-.9,1.51-.1.18-.21.36-.32.54-.39.63-.77,1.26-1.18,1.87l-.27.42c-.33.5-.66,1-1,1.49-.12.19-.25.38-.38.56q-.59.87-1.2,1.71l-.09.13c-.43.59-.85,1.16-1.29,1.73-.13.18-.27.35-.4.52l-1.07,1.38c-.1.12-.2.26-.31.38-.44.56-.9,1.11-1.35,1.65l-.39.45-.83,1c-.62.7-1.24,1.39-1.87,2.07l-.18.21c-.7.75-1.4,1.48-2.11,2.19l-.54.55c-.57.58-1.15,1.14-1.73,1.69l-.5.48c-.72.69-1.45,1.35-2.18,2l-.43.38c-.61.54-1.23,1.07-1.85,1.59l-.63.53c-.71.59-1.42,1.16-2.14,1.74l-.14.11-2.3,1.76-.66.49c-.61.45-1.23.89-1.85,1.33l-.55.39c-.78.54-1.56,1.07-2.35,1.59l-.54.35c-.63.43-1.28.84-1.92,1.24l-.66.42c-.8.5-1.61,1-2.41,1.46l-.07,0c-.78.46-1.58.92-2.38,1.37l-.67.36-2,1.1-.48.26-2.44,1.25-.57.28-2,1-.63.3c-.82.38-1.64.77-2.46,1.13l-.17.08c-.77.34-1.54.68-2.3,1l-.67.28-2.08.86-.39.16-.59.22c-1,.4-2,.77-2.95,1.14l-1,.36-3,1.08-.4.14c-1.12.38-2.23.74-3.33,1.09l-.91.28-2.62.81c-.25.06-.51.14-.76.22-1.07.31-2.13.6-3.18.88l-.72.2-2.52.65-.84.21c-1,.25-2,.49-3,.71a.87.87,0,0,1-.22.05l-2.74.6-.9.19-1.51.3-.92.18-1.54.29-.8.15-2.11.37h-.1c-.75.13-1.49.24-2.21.35l-.1,0-2,.3-.15,0-1.92.26h-.07l-1.88.24h0l-1.76.2h0c-.25,0-.5.06-.73.09h-.13l-.63.05-.16,0-.56.05a.52.52,0,0,1-.17,0l-.66.07h-.24l-.39,0-.3,0-.29,0-.29,0-.3,0-.23,0a2,2,0,0,0-.35,0h-.46l-.2,0h0l-2.21.12-23.5,10.55.84,0h.06l.29,0h.14l.27,0h.19l.31,0H115c.17,0,.34,0,.53,0h.15l.47,0h.14l.54,0H117l.59-.05h.14l.62-.05.17,0,.63-.05.2,0,.81-.07.44,0,.43,0,.52-.06.38,0,.58-.06c.12,0,.24,0,.36,0l.33,0,.27,0,.4-.05.6-.06.44,0,.62-.08.55-.06.92-.12.68-.09.49-.06.71-.09.5-.07.73-.11a4.44,4.44,0,0,0,.49-.07l.81-.11c.15,0,.29-.05.44-.06.31-.06.62-.1.94-.15l.27,0h.06l2.74-.44.18,0,2.29-.4.28-.05,1.13-.2,1.79-.34,1.26-.24,1.77-.36.73-.15,1-.2.57-.12,2.69-.59.08,0c.86-.19,1.73-.4,2.61-.61l.67-.16,2.42-.6.38-.12c.94-.23,1.89-.47,2.83-.73l.63-.18c.77-.2,1.55-.42,2.34-.65l.68-.2c1-.28,1.94-.56,2.92-.86l.33-.11c.88-.25,1.75-.54,2.64-.82l.78-.24,2.67-.89.33-.12c1-.34,2-.69,3-1.05.24-.1.49-.18.73-.27l2.47-.91.7-.26,2.86-1.11.21-.1.46-.18c.88-.36,1.76-.72,2.65-1.1.26-.1.53-.23.8-.33l2.93-1.28.14-.07h0c1-.46,2.07-.94,3.1-1.42l.78-.38,2.5-1.21.7-.35c1-.51,2-1,3.06-1.58l.6-.31c.84-.45,1.69-.91,2.53-1.38l.83-.46c1-.56,2-1.13,3-1.72l.05,0c1-.61,2-1.22,3-1.85l.82-.51c.81-.52,1.63-1,2.43-1.57l.65-.42c1-.65,2-1.33,2.95-2l.65-.46c.8-.56,1.59-1.12,2.37-1.7l.8-.59.56-.41c.78-.59,1.56-1.2,2.33-1.81l.14-.1c.91-.72,1.82-1.47,2.72-2.21.26-.22.52-.43.78-.66.78-.65,1.55-1.31,2.32-2,.18-.16.36-.31.53-.48.92-.81,1.83-1.65,2.73-2.49l.66-.63c.71-.68,1.42-1.38,2.12-2.07.24-.24.48-.48.71-.73.89-.88,1.76-1.79,2.61-2.72l.3-.32c.76-.83,1.52-1.67,2.27-2.52.11-.14.23-.27.35-.4l.76-.9.41-.48c.59-.69,1.16-1.4,1.74-2.11.11-.13.21-.27.32-.41.47-.6.95-1.2,1.42-1.81l.45-.59c.55-.73,1.12-1.48,1.66-2.24v0c.55-.74,1.08-1.5,1.6-2.27.15-.2.29-.42.44-.63l1.31-2c.09-.14.19-.28.28-.43.51-.79,1-1.59,1.51-2.39,0-.08.08-.14.12-.21s.16-.26.24-.39c.4-.66.79-1.31,1.18-2l.36-.63q.72-1.24,1.41-2.52l.21-.4c.39-.73.79-1.48,1.17-2.23.13-.24.25-.49.36-.73.42-.82.82-1.64,1.22-2.47l.1-.21c.43-.9.84-1.81,1.25-2.73.11-.24.21-.48.32-.73.33-.76.66-1.51,1-2.28.09-.2.17-.4.25-.6.39-.94.76-1.89,1.13-2.85.07-.21.15-.41.23-.62.29-.79.59-1.59.87-2.39l.27-.77c.34-1,.68-2,1-3l.09-.26c.29-.92.57-1.87.85-2.82.08-.28.17-.56.25-.84.26-.9.51-1.83.75-2.74.05-.15.08-.3.13-.45.27-1.05.53-2.11.79-3.19.06-.27.12-.55.19-.82.2-.87.4-1.75.59-2.64.05-.27.1-.52.16-.78.22-1.1.44-2.21.65-3.33,0-.22.07-.44.11-.65.17-.94.33-1.89.48-2.84l.15-1c.17-1.15.34-2.32.49-3.5Z"/><path class="cls-7" d="M135.53,322.7a205,205,0,0,0,21.9,9.27,183,183,0,0,0,21,6.06,167.76,167.76,0,0,0,20,3.21,160.9,160.9,0,0,0,57.23-4.56A169.9,169.9,0,0,0,299,318.27a178.87,178.87,0,0,0,27.92-20.54l1-.87h0a89.16,89.16,0,0,0,8.88-8.83c.59-.65,1-1.1,1.17-1.31v0c16-18.74,39.5-58-36.15-81.17,0,0-.1,1.42-.75,5.6,0,0,60.54,15.1,18.85,59.79a127.37,127.37,0,0,1-29.7,22,166,166,0,0,1-45.71,16.17,218.5,218.5,0,0,1-39.15,4.25,191.2,191.2,0,0,1-21.35-.7l-.53-.06-.4,0-.23,0h-.09c28.21-8.41,49.72-19.92,66.13-32.53a143.28,143.28,0,0,0,35.51-39.08,126.47,126.47,0,0,0,14.41-33.6,88.79,88.79,0,0,0,2.84-16.06l-40.42-17.31,9.9,10.41c-3.87,29.78-15.24,52.49-30.25,69.82s-33.64,29.27-52,37.49a217.68,217.68,0,0,1-50.46,15.23,198.57,198.57,0,0,1-25.58,3A239.55,239.55,0,0,0,135.53,322.7Z"/><path class="cls-8" d="M124.84,70.11C115.18,29,139.3,27.32,151.85,29l.1,0c.62.11,1.24.21,1.85.34s1.09.22,1.64.34l1.78.38c.55.12,1.08.26,1.62.39l1.75.42,1.58.43c.58.16,1.17.31,1.74.48l1.53.47,1.73.52,1.49.5c.53.17,1.06.34,1.58.53l.13,0,1.5.54,1.65.61c.51.18,1,.4,1.51.6l1.59.62,1.52.65c.5.21,1,.42,1.51.65l1.52.68,1.47.68,1.49.73c.49.23,1,.47,1.44.71s1,.5,1.48.76l1.41.73,1.45.79,1.37.76,1.43.82,1.14.67.21.13.23.13,1.14.7,1.36.83,1.32.85c.45.29.9.57,1.34.87s.87.57,1.3.87l1.32.89,1.27.89,1.29.91,1.25.92,1.25.92c.42.32.82.64,1.24.95s.82.62,1.22.94l1.2,1c.41.31.81.63,1.21,1l1.15,1,.92.75.27.24,1.12.95c.4.34.79.69,1.18,1s.72.63,1.07.94.79.7,1.18,1l1,.95,1.15,1.07c.35.32.68.65,1,1l1.1,1.06,1,1,1.06,1.06,1,1,1,1.05c.33.35.66.68,1,1s.67.7,1,1.05.65.69,1,1,.44.47.66.72l.3.32.3.33.64.72.94,1c.3.34.61.69.9,1l.92,1,.89,1,.87,1c.29.34.58.68.86,1l.56.67.31.38.82,1,.83,1,.81,1,.81,1,.76,1c.28.35.54.71.81,1l.7.94c.17.22.33.45.5.66l.32.43.68.92.75,1,.7,1,.7,1,.67,1c.24.33.46.66.69,1l.62.91.4.58.29.43.59.87c.21.33.43.65.64,1l.59.89.6.92.59.91c.18.28.35.57.54.85s.4.64.6.94c.08.15.17.28.25.42a3.7,3.7,0,0,1,.21.33l.29.46c.12.19.24.38.35.57l.43.7c.21.33.39.65.58,1s.3.48.44.72l.54.9.42.71.51.88.25.42c0,.08.08.16.13.24.17.29.34.57.5.86s.23.42.35.62l.45.8c.11.21.24.43.36.64l.36.66c.13.25.27.48.39.72l.28.52c.11.19.21.38.31.57a1.62,1.62,0,0,1,.1.18c.09.16.16.31.24.46s.26.49.39.72.08.16.11.23l6.11,1a.21.21,0,0,1,0-.08,1.77,1.77,0,0,0-.1-.22c0-.1-.09-.21-.15-.36l-.23-.48c-.08-.18-.17-.36-.27-.56a.36.36,0,0,0,0-.09c-.09-.18-.17-.37-.27-.56l-.1-.22q-.13-.25-.27-.54a2.26,2.26,0,0,0-.11-.22l-.31-.64,0,0a2,2,0,0,0-.11-.2l-.35-.7-.2-.4c-.1-.21-.21-.4-.31-.6l-.31-.6-.25-.49c-.13-.23-.26-.48-.39-.72l-.24-.46s-.06-.12-.1-.18l-.31-.58c-.09-.17-.18-.34-.28-.51s-.25-.48-.39-.71l-.36-.67-.36-.64-.45-.8c-.12-.2-.23-.41-.36-.62l-.49-.86c0-.08-.08-.16-.13-.24l-.25-.42c-.17-.29-.33-.58-.52-.88l-.41-.71-.54-.91c-.14-.23-.29-.47-.43-.72s-.39-.63-.59-1l-.43-.69-.35-.58-.29-.46c-.07-.11-.14-.22-.2-.33l-.26-.41-.6-1-.54-.85c-.19-.3-.4-.61-.59-.9s-.4-.61-.59-.92-.4-.59-.6-.9l-.64-1c-.2-.29-.39-.58-.6-.87s-.18-.29-.28-.43-.27-.39-.39-.58l-.63-.91-.69-1-.67-1-.7-1c-.23-.32-.46-.65-.7-1l-.75-1c-.23-.31-.45-.62-.68-.92s-.21-.3-.32-.44l-.5-.66-.7-.93-.81-1.06-.76-1-.81-1c-.27-.34-.54-.67-.8-1l-.84-1c-.28-.33-.55-.67-.83-1l-.3-.37-.56-.67-.86-1-.87-1c-.3-.35-.6-.69-.89-1l-.91-1-.92-1c-.31-.35-.61-.7-.94-1s-.41-.48-.63-.71-.2-.23-.3-.33-.19-.22-.3-.33l-.66-.72-1-1-1-1c-.34-.34-.66-.68-1-1s-.69-.71-1-1.06l-1-1L227,62.83l-1-1-1.11-1.06c-.35-.32-.69-.65-1-1l-1.15-1.07-1-.94c-.38-.36-.78-.7-1.18-1.06l-1.07-.95c-.38-.35-.78-.69-1.18-1l-1.11-1-.28-.24-.92-.75c-.38-.33-.76-.64-1.16-1l-1.2-1-1.2-1c-.41-.31-.81-.63-1.23-.94s-.81-.63-1.23-1l-1.24-.92-1.26-.91-1.29-.92-1.27-.89c-.44-.31-.88-.6-1.32-.89l-1.29-.87-1.35-.88q-.66-.4-1.32-.84l-1.36-.83-1.15-.7-.22-.13-.21-.14-1.15-.65c-.46-.28-.94-.55-1.42-.82s-.91-.51-1.37-.76-1-.54-1.45-.8-.94-.5-1.41-.73l-1.48-.76c-.47-.25-1-.47-1.43-.71l-1.5-.73-1.48-.67-1.51-.69-1.52-.65c-.5-.22-1-.44-1.52-.64s-1-.43-1.58-.63l-1.51-.6-1.66-.61c-.5-.18-1-.37-1.49-.54l-.13,0-1.58-.53-1.49-.5c-.58-.19-1.16-.35-1.73-.53l-1.54-.47-1.73-.46-1.58-.44c-.58-.15-1.17-.28-1.74-.41l-1.63-.4L158.21,24c-.55-.12-1.09-.25-1.64-.35l-1.86-.34c-.54-.1-1.07-.21-1.61-.29L151,22.69c-.48-.08-1-.16-1.46-.22-1.18-.16-2.38-.31-3.58-.44l.58,1c-39.53.06-28.84,50.16-28.84,50.16Z"/><polygon class="cls-9" points="127.3 121.98 130.41 110.94 113.43 111.24 109.54 125.07 127.3 121.98"/><path class="cls-10" d="M130.41,110.94c.88-.38,1.74-.74,2.61-1.09l.7-.28c.72-.29,1.44-.56,2.16-.83l.48-.18c.86-.33,1.7-.62,2.56-.91l.59-.21c.69-.24,1.38-.47,2.07-.68l.62-.2c.85-.27,1.69-.52,2.53-.76l.33-.1c.74-.21,1.48-.4,2.22-.6l.66-.17c.78-.2,1.55-.39,2.32-.56a1.27,1.27,0,0,1,.18-.06l2.49-.53.62-.12c.67-.14,1.34-.27,2-.38l.51-.1q1.22-.21,2.43-.39l.5-.07c.66-.1,1.32-.18,2-.26l.63-.09,2.38-.25h.2c.72-.07,1.45-.13,2.17-.18l.66,0c.66,0,1.33-.08,2-.11h.39c.77,0,1.53,0,2.28-.07h.64c.59,0,1.18,0,1.76,0h.63l2.21,0,.5,0c.6,0,1.19,0,1.79.09l.66,0c.71,0,1.4.1,2.1.17h.16c.71.06,1.43.14,2.14.22l.66.08,1.71.22.5.07,2.1.32.59.1,1.26.22c.92.17,1.84.36,2.74.55l.28,0c1,.22,2,.45,2.95.69l.75.19,2.34.62.67.19c.94.27,1.89.55,2.83.85l.53.18,2.33.77c.25.1.51.19.77.27.86.31,1.73.63,2.59,1l.17.07c.9.34,1.79.7,2.68,1.07l.76.33c.7.29,1.39.59,2.09.91l.62.26,2.56,1.21.58.29,2,1,.7.37q1.26.65,2.49,1.32l.06,0,2.39,1.35c.22.13.44.27.67.39l2,1.17c.15.1.31.19.47.28l2.33,1.47.52.33,1.85,1.22.57.4c.76.5,1.5,1,2.24,1.53l.16.11,2,1.47.58.42c.62.45,1.21.91,1.81,1.36l.34.25.49.39c.84.65,1.66,1.3,2.49,2l.8.66c.84.67,1.66,1.36,2.47,2l.31.27c.91.76,1.79,1.54,2.65,2.31l.71.63,2,1.84.58.55c.82.76,1.61,1.52,2.39,2.27l.53.52,1.85,1.84.61.62c.73.74,1.46,1.49,2.16,2.22l.15.17,1.92,2,.61.68c.36.38.7.76,1,1.14l.62.7c.35.4.7.79,1,1.18l.54.61,1.39,1.62.07.09,1.43,1.71a.21.21,0,0,1,.06.08c.45.54.88,1.07,1.3,1.59l.09.12c.42.52.83,1,1.2,1.52a.08.08,0,0,1,.05.05c.41.52.79,1,1.16,1.5h0l1.07,1.4s0,0,0,0l.44.6a.39.39,0,0,0,.08.1c.13.17.24.35.37.51l.09.13.34.45a.76.76,0,0,0,.11.14l.38.54.14.19.23.32c.05.09.11.16.16.24l.18.24a2590002792098.4,2590002792098.4,0,0,0,.34.48l.13.2a2.43,2.43,0,0,1,.2.28l.09.13.17.25a1,1,0,0,1,.12.17h0c.63.91,1,1.54,1.24,1.84l21.06,14.81-.45-.7,0-.05a2.5,2.5,0,0,1-.16-.24l-.08-.12-.15-.23-.1-.15-.19-.26a1.3,1.3,0,0,0-.1-.15c-.09-.14-.19-.29-.3-.44a1,1,0,0,0-.09-.13,3,3,0,0,0-.27-.38.05.05,0,0,0,0,0l-.05-.07-.31-.45-.07-.11-.35-.48-.08-.12c-.11-.16-.24-.33-.35-.5a1.71,1.71,0,0,0-.11-.14c-.11-.18-.24-.35-.36-.52l-.12-.16-.48-.66c-.08-.12-.18-.24-.27-.36l-.24-.35-.32-.42-.22-.3c-.12-.15-.23-.32-.35-.47l-.21-.29-.21-.26-.15-.22-.25-.33-.36-.48a4.11,4.11,0,0,1-.27-.35l-.38-.49-.34-.44c-.18-.24-.38-.49-.58-.74s-.27-.36-.42-.54l-.3-.39-.44-.55-.32-.4-.45-.57-.32-.39-.51-.64-.29-.35q-.28-.36-.6-.72c-.05-.08-.11-.15-.17-.23l0,0c-.58-.71-1.17-1.42-1.78-2.14l-.12-.14-1.5-1.77-.2-.22-.75-.86-1.2-1.37c-.29-.31-.57-.63-.86-1l-1.21-1.34-.5-.55c-.22-.24-.44-.49-.66-.72l-.4-.44c-.61-.66-1.24-1.32-1.89-2l-.05-.06L277,152.35l-.49-.5-1.75-1.77-.29-.28c-.67-.68-1.37-1.36-2.07-2l-.48-.46c-.57-.55-1.16-1.12-1.75-1.67l-.52-.5c-.73-.69-1.48-1.37-2.24-2.07l-.25-.23L265.11,141l-.62-.54c-.7-.62-1.41-1.23-2.12-1.84l-.28-.24c-.8-.68-1.62-1.37-2.45-2.05l-.59-.49c-.67-.56-1.36-1.11-2.05-1.66l-.58-.47L254,131.81l-.19-.13-.39-.3c-.76-.58-1.53-1.15-2.3-1.72l-.7-.51c-.86-.63-1.72-1.26-2.59-1.88l-.13-.08s0,0,0,0c-.92-.66-1.86-1.3-2.81-1.94l-.71-.48c-.77-.51-1.54-1-2.33-1.53-.21-.14-.43-.29-.65-.42-1-.62-1.93-1.23-2.92-1.84l-.57-.34c-.82-.5-1.65-1-2.48-1.48l-.82-.48-3-1.71-.05,0c-1-.57-2.08-1.12-3.13-1.67l-.86-.44-2.59-1.3-.69-.34c-1.07-.51-2.15-1-3.23-1.51l-.73-.33-2.68-1.16-.91-.38-.64-.27c-.91-.37-1.82-.74-2.74-1.09l-.17-.06c-1.08-.43-2.18-.82-3.28-1.21l-1-.34c-.95-.34-1.92-.66-2.89-1l-.68-.22c-1.18-.37-2.36-.73-3.54-1.07-.29-.07-.59-.15-.87-.24-.95-.27-1.92-.52-2.88-.76-.33-.09-.65-.18-1-.25-1.21-.3-2.43-.59-3.67-.85l-.43-.1c-1.11-.23-2.21-.45-3.33-.65l-.52-.1-1.17-.21-.62-.1c-.89-.15-1.79-.29-2.69-.41l-.52-.07c-.76-.12-1.52-.2-2.28-.3l-.74-.09c-.92-.1-1.84-.2-2.78-.28h0c-.92-.09-1.85-.16-2.78-.22l-.76-.05c-.78,0-1.57-.08-2.36-.12l-.52,0c-.94,0-1.88-.06-2.83-.07h-.24c-.15,0-.3,0-.45,0-.77,0-1.53,0-2.31,0h-.73c-1,0-1.93,0-2.89.08h-.45l-2.52.14-.81.06c-.91.06-1.82.14-2.74.22l-.23,0c-1,.09-2,.2-3,.32l-.79.1c-.82.09-1.63.2-2.46.32l-.64.1c-1,.14-2,.31-3,.48l-.64.12-2.51.47-.8.17-3.1.66-.26.07c-.95.22-1.91.45-2.87.7l-.84.22c-.92.23-1.83.49-2.75.75l-.44.12c-1.05.3-2.1.62-3.15,1l-.81.26-2.57.84-.75.26c-1.07.37-2.13.75-3.2,1.14l-.61.24c-.89.33-1.79.68-2.69,1-.29.13-.59.24-.88.36-1.09.44-2.17.89-3.27,1.36Z"/><path class="cls-11" d="M207,81.54A143.11,143.11,0,0,0,155.29,71,126.32,126.32,0,0,0,119,75.72a87.77,87.77,0,0,0-15.26,5.76l5.76,43.59,3.89-13.83c27.58-11.88,52.92-13.69,75.48-9.63s42.34,14,58.8,25.58a218.24,218.24,0,0,1,38.87,35.6,199.57,199.57,0,0,1,15.63,20.46,237.43,237.43,0,0,0-.6-26.14,203.75,203.75,0,0,0-3.22-23.57,181.23,181.23,0,0,0-5.5-21.12,164.23,164.23,0,0,0-7.44-18.82A160.51,160.51,0,0,0,252.3,46.71a169.85,169.85,0,0,0-38-27.86A180.63,180.63,0,0,0,182.44,5.32L181.19,5h0A87.61,87.61,0,0,0,170,2c-1.37-.3-2.28-.47-2.64-.52l0,0C143-2.63,97.93-3.77,115.72,74.13a55.7,55.7,0,0,1,5.37-2.44S103.26,12.06,163,25.07a127.14,127.14,0,0,1,34.1,14.32,165.6,165.6,0,0,1,37.24,31.05,218.09,218.09,0,0,1,23.65,31.49,188.27,188.27,0,0,1,10.3,18.71l.23.48c.06.15.12.26.15.36a1.77,1.77,0,0,1,.1.22.21.21,0,0,0,0,.08C247.12,101.82,226.24,89.21,207,81.54Z"/><path class="cls-12" d="M95,299.22l-5.91-4.42c-29.92,28.2-43.42,9.82-48.51-2-.12-.35-.25-.71-.38-1.07-.22-.6-.44-1.19-.64-1.78s-.35-1.06-.52-1.59-.39-1.15-.57-1.73-.31-1.07-.47-1.6-.35-1.15-.51-1.72-.28-1.06-.43-1.59-.31-1.16-.45-1.74-.25-1-.37-1.55-.28-1.18-.41-1.76-.21-1-.32-1.54-.23-1.1-.33-1.65a.5.5,0,0,1,0-.13c-.1-.52-.18-1-.28-1.56s-.21-1.16-.3-1.73-.17-1.08-.24-1.62-.18-1.11-.25-1.68-.14-1.09-.21-1.64-.14-1.09-.19-1.64-.12-1.1-.17-1.65-.11-1.08-.15-1.62-.08-1.1-.12-1.65-.09-1.07-.12-1.6,0-1.11-.07-1.66-.06-1.05-.08-1.58,0-1.1,0-1.66l0-1.57c0-.55,0-1.1,0-1.64s0-.88,0-1.33v-.24c0-.09,0-.17,0-.26,0-.45,0-.9,0-1.35s0-1.06,0-1.59,0-1,.07-1.56.05-1.07.07-1.61.07-1,.11-1.55.07-1.06.11-1.59.09-1,.13-1.55l.15-1.57c.05-.51.11-1,.16-1.55s.12-1,.18-1.55.13-1,.19-1.54l.21-1.52c.07-.5.14-1,.22-1.51s.15-1,.23-1.53.16-1,.25-1.49.12-.77.19-1.16c0-.12,0-.25.07-.36.09-.49.18-1,.26-1.44l.3-1.55c.09-.47.19-.93.28-1.4l.33-1.55.3-1.37.35-1.54.33-1.37.36-1.49c.12-.45.23-.91.35-1.37s.26-1,.38-1.46.25-.91.38-1.36.26-1,.39-1.42.27-.92.4-1.37.27-.92.41-1.38.27-.91.41-1.36.18-.62.28-.93c.05-.14.1-.28.14-.42s.09-.28.13-.42l.3-.91c.14-.45.29-.9.43-1.34l.45-1.3c.14-.44.29-.89.44-1.32s.31-.86.45-1.28.31-.86.46-1.29.31-.83.46-1.25.21-.55.31-.82.11-.31.17-.46L45,188l.49-1.25c.15-.4.31-.81.47-1.21s.32-.82.49-1.22.31-.77.47-1.15l.51-1.24.46-1.06c.1-.26.21-.52.32-.77s.14-.33.22-.49c.14-.35.3-.7.45-1.05l.52-1.17c.16-.37.32-.73.49-1.09s.33-.74.5-1.1.32-.71.49-1.07.34-.72.5-1.08l.48-1,.3-.62.23-.47.46-1,.52-1c.15-.33.31-.64.47-1s.33-.65.49-1,.33-.65.5-1,.3-.6.46-.89.35-.67.52-1c.08-.14.15-.3.22-.43l.19-.35.25-.47.32-.6.39-.72.54-1,.41-.74.51-.92.4-.71.51-.88.24-.44.14-.23.5-.86.36-.61c.15-.27.31-.53.46-.79l.38-.64.39-.64.42-.7.31-.5c.11-.19.23-.38.34-.55l.11-.18a4.73,4.73,0,0,1,.28-.44c.14-.24.29-.47.43-.69l.13-.23-2.16-5.78s0,0,0,.07l-.14.2c-.07.08-.14.19-.23.31s-.19.28-.31.44l-.35.51a.41.41,0,0,0,0,.09c-.12.16-.24.32-.36.51l-.13.19-.34.51-.13.2-.4.6v0c0,.07-.09.13-.13.19l-.42.66-.25.38-.37.57-.35.56-.3.47-.44.69c-.08.15-.18.29-.27.45l-.11.17-.34.55c-.1.18-.2.34-.31.51s-.28.46-.42.7-.25.42-.38.65-.26.41-.38.62l-.47.79-.36.62c-.17.28-.33.57-.5.87l-.14.22c-.07.14-.16.29-.24.43l-.5.89-.4.71-.52.92-.4.74-.54,1-.4.73-.32.58c-.08.16-.16.32-.25.48l-.18.36c-.08.13-.15.27-.23.41l-.52,1c-.15.29-.3.6-.46.89l-.49,1-.5,1c-.15.32-.31.64-.47,1l-.52,1c-.15.32-.3.63-.46.95-.08.16-.15.32-.23.47s-.2.43-.3.63-.32.67-.47,1-.34.72-.5,1.08-.33.7-.5,1.06l-.5,1.1c-.16.37-.32.72-.49,1.09l-.51,1.18c-.16.35-.31.69-.46,1-.07.17-.14.33-.22.49l-.32.78-.45,1.06c-.17.41-.35.81-.51,1.23l-.47,1.16c-.17.4-.33.81-.49,1.21l-.48,1.21c-.16.41-.32.82-.48,1.25s-.31.81-.47,1.21c-.06.15-.11.31-.17.46l-.3.82c-.16.42-.31.84-.46,1.26s-.31.85-.46,1.28l-.45,1.29-.45,1.31c-.15.43-.3.87-.44,1.31L35,198.78c-.1.31-.2.6-.29.91,0,.14-.09.28-.14.43s-.09.28-.14.42l-.27.92c-.15.46-.28.91-.42,1.36s-.27.93-.41,1.39L33,205.57c-.14.48-.27,1-.4,1.42s-.25.92-.37,1.37-.26,1-.38,1.46l-.36,1.37-.36,1.49c-.11.46-.22.91-.32,1.38s-.24,1-.35,1.52-.21.92-.31,1.38-.21,1-.32,1.55-.19.93-.28,1.4-.2,1-.3,1.55l-.27,1.43-.06.37c-.07.38-.13.77-.2,1.16s-.17,1-.24,1.49-.16,1-.24,1.52-.15,1-.22,1.51l-.21,1.53c-.06.52-.12,1-.19,1.55s-.11,1-.17,1.54-.12,1-.17,1.55-.09,1-.14,1.57-.1,1-.13,1.54-.08,1.07-.11,1.6-.08,1-.11,1.55,0,1.07-.07,1.6-.06,1.05-.07,1.57,0,1.05-.05,1.59,0,.9,0,1.35v.25c0,.08,0,.17,0,.25v3c0,.51,0,1.05,0,1.57s0,1.1,0,1.65,0,1.06.07,1.6.05,1.09.08,1.64.07,1.07.11,1.6.07,1.11.12,1.66.1,1.08.16,1.61.1,1.11.16,1.66.13,1.1.2,1.64.12,1.09.2,1.64.16,1.12.25,1.69.15,1.07.24,1.59.21,1.16.31,1.75.17,1,.28,1.55a.68.68,0,0,0,0,.15c.1.54.22,1.09.34,1.62s.2,1,.31,1.55.28,1.17.41,1.76.24,1,.37,1.56.31,1.16.46,1.73.27,1.06.42,1.59.34,1.15.51,1.72.31,1.06.48,1.6.37,1.16.56,1.73.34,1.07.52,1.59.43,1.18.64,1.78.37,1,.56,1.54.51,1.31.77,1.95c.18.46.35.92.54,1.37.45,1.11.92,2.22,1.42,3.32l.56-1C57.46,333.54,95,299.22,95,299.22Z"/><polygon class="cls-13" points="132.96 266.43 121.84 269.27 130.61 283.82 144.53 280.25 132.96 266.43"/><path class="cls-14" d="M121.84,269.27c-.76-.57-1.51-1.13-2.25-1.71l-.59-.46-1.81-1.45a4,4,0,0,0-.4-.32l-2.07-1.77-.47-.41c-.55-.47-1.09-1-1.63-1.45l-.48-.43c-.66-.61-1.3-1.2-1.93-1.81l-.25-.24-1.63-1.61-.48-.49c-.56-.57-1.11-1.15-1.65-1.72l-.13-.14c-.58-.62-1.15-1.25-1.71-1.87l-.42-.49c-.45-.51-.91-1-1.34-1.55l-.34-.39c-.53-.63-1-1.27-1.55-1.89-.11-.15-.21-.28-.32-.41-.41-.53-.82-1-1.22-1.58l-.37-.5c-.49-.64-1-1.29-1.42-1.94l-.11-.15c-.42-.6-.84-1.2-1.24-1.81-.13-.17-.25-.36-.37-.54-.37-.55-.73-1.1-1.09-1.66l-.21-.32-1.2-1.94c-.1-.19-.21-.38-.32-.56L92,236.14c-.1-.19-.21-.36-.31-.55-.36-.64-.72-1.29-1.06-1.94-.09-.15-.15-.3-.23-.44-.28-.53-.55-1.06-.82-1.59-.1-.2-.2-.4-.29-.6-.32-.63-.62-1.27-.91-1.89l-.07-.15c-.31-.65-.6-1.31-.89-2-.09-.21-.17-.41-.26-.6-.23-.54-.45-1.07-.67-1.61l-.19-.47c-.27-.65-.52-1.31-.77-2l-.21-.56-.44-1.2c-.31-.88-.62-1.76-.9-2.65l-.09-.27c-.32-1-.61-1.92-.89-2.89l-.21-.74q-.33-1.17-.63-2.34c-.06-.23-.12-.45-.17-.68-.25-.95-.47-1.91-.69-2.88,0-.19-.07-.37-.11-.55-.18-.79-.34-1.6-.49-2.39-.06-.27-.11-.54-.16-.81-.17-.9-.33-1.81-.47-2.72a1,1,0,0,0,0-.17c-.15-1-.29-1.92-.41-2.87,0-.27-.07-.54-.1-.82-.1-.75-.19-1.51-.26-2.26,0-.22,0-.45-.08-.67-.09-1-.17-1.89-.24-2.83,0-.21,0-.42,0-.63,0-.77-.1-1.53-.13-2.28,0-.26,0-.53,0-.79,0-.94-.08-1.88-.11-2.82v-.06c0-.92,0-1.84,0-2.76,0-.26,0-.51,0-.76l0-2.3c0-.18,0-.36,0-.53,0-.93.06-1.84.1-2.75,0-.21,0-.42,0-.63,0-.74.08-1.47.13-2.21,0-.23,0-.47.05-.7.06-.9.13-1.81.21-2.7,0-.07,0-.13,0-.2.08-.83.16-1.66.26-2.49,0-.24,0-.47.07-.71.08-.75.18-1.5.27-2.25,0-.13,0-.27,0-.41s0-.41.08-.62c.15-1.06.3-2.1.45-3.14.06-.33.11-.68.17-1,.16-1.07.34-2.12.53-3.16,0-.14,0-.28.08-.41q.32-1.74.66-3.45c.07-.31.14-.61.2-.93.19-.9.38-1.79.59-2.67,0-.26.1-.52.17-.78.25-1.08.51-2.15.77-3.2.06-.25.12-.48.19-.72.21-.85.44-1.69.66-2.52.07-.28.15-.57.23-.84.28-1,.56-2,.84-3a1.87,1.87,0,0,0,.07-.22c.27-.92.54-1.81.82-2.69l.27-.87c.15-.5.31-1,.47-1.47.1-.3.2-.6.29-.89l.5-1.48c.09-.26.18-.52.26-.77.25-.69.48-1.37.72-2a.38.38,0,0,1,0-.1c.26-.72.51-1.42.77-2.1l0-.1.73-1.91a.59.59,0,0,1,.06-.14c.24-.62.47-1.22.7-1.8l0-.07.71-1.76h0c.23-.57.46-1.11.68-1.63a0,0,0,0,1,0,0l.29-.68a.69.69,0,0,0,0-.13c.09-.18.17-.38.25-.57a.52.52,0,0,0,.06-.15c.08-.17.16-.34.23-.51s0-.11.07-.16c.1-.21.18-.41.27-.61a1.36,1.36,0,0,0,.1-.21l.16-.36.12-.27c0-.09.09-.17.13-.27l.12-.27c0-.09.08-.18.13-.26l.09-.21.15-.32a.4.4,0,0,1,.07-.13,1.46,1.46,0,0,1,.13-.28,1.54,1.54,0,0,1,.08-.19h0c.47-1,.81-1.67,1-2l2.26-25.65c-.09.17-.22.42-.38.75,0,0,0,0,0,0s-.09.17-.13.26l-.06.13-.12.24L97.5,86c0,.09-.09.19-.14.29s0,.1-.08.16l-.23.47A1,1,0,0,1,97,87c-.06.14-.13.28-.2.42s0,0,0,0a.36.36,0,0,0,0,.09c-.08.15-.15.32-.23.49l-.06.12c-.08.18-.16.35-.25.53a.78.78,0,0,0,0,.14c-.09.18-.18.36-.26.56,0,0,0,.1-.08.16l-.26.57a1.42,1.42,0,0,1-.08.18c-.11.25-.21.5-.33.75L95,91.5l-.17.39-.21.48-.15.34-.23.54c0,.11-.1.22-.14.33s-.09.2-.13.31-.07.17-.11.25-.1.25-.16.37-.15.37-.23.56-.11.27-.18.41-.15.37-.22.57l-.21.51c-.12.29-.24.57-.36.88s-.17.41-.25.62-.13.31-.19.47l-.26.65-.18.47-.27.68-.18.48c-.1.25-.2.5-.29.75s-.11.28-.16.43l-.33.88c0,.09-.07.18-.1.26s0,0,0,.05l-1,2.62a1.77,1.77,0,0,1-.06.17c-.26.71-.51,1.44-.77,2.19l-.09.28c-.13.35-.25.72-.37,1.08-.19.57-.39,1.14-.59,1.72-.12.41-.26.82-.4,1.21-.18.57-.36,1.15-.55,1.73-.07.24-.15.46-.22.7s-.2.63-.29.94l-.18.56c-.26.87-.53,1.75-.79,2.64a.24.24,0,0,0,0,.09c-.25.84-.5,1.7-.74,2.56l-.18.67c-.23.8-.44,1.6-.66,2.41a3.69,3.69,0,0,0-.1.39c-.25.93-.49,1.87-.73,2.82,0,.21-.1.43-.16.64-.19.77-.38,1.56-.56,2.36-.06.23-.11.46-.17.69-.23,1-.45,2-.67,3,0,.12,0,.23-.07.34-.19.89-.38,1.79-.56,2.7-.06.26-.11.54-.16.79-.19.92-.37,1.85-.54,2.78l-.06.35c-.19,1-.38,2.09-.55,3.15,0,.25-.09.5-.13.76-.14.86-.28,1.73-.4,2.6l-.12.74c-.14,1-.29,2-.42,3l0,.23-.06.49c-.12.95-.23,1.9-.34,2.85l-.09.86c-.12,1.06-.22,2.12-.32,3.19,0,.05,0,.1,0,.15v0c-.11,1.12-.19,2.26-.27,3.4l-.06.85c-.06.93-.11,1.86-.16,2.79,0,.26,0,.51,0,.77q-.07,1.71-.12,3.45c0,.22,0,.45,0,.67,0,1,0,1.92,0,2.88v1c0,1.15,0,2.31,0,3.46V179c0,1.17.07,2.35.13,3.54,0,.32,0,.64,0,1,0,1,.12,1.93.18,2.89,0,.26,0,.51,0,.77.09,1.19.19,2.37.31,3.56l.09.8c.1,1,.21,1.93.33,2.89l.12,1c0,.24.06.46.09.69.13,1,.28,2,.44,2.92a1.1,1.1,0,0,0,0,.18c.18,1.14.39,2.3.6,3.44.07.34.13.67.19,1,.2,1,.4,2,.61,3l.15.7c.27,1.2.56,2.4.85,3.6.08.3.16.59.23.88.25,1,.51,1.92.78,2.86.09.34.18.66.28,1,.35,1.21.7,2.41,1.1,3.61,0,.13.09.27.14.41.35,1.07.71,2.14,1.1,3.21.06.18.11.34.17.5.13.38.28.74.41,1.11.07.2.15.4.22.59.32.85.65,1.7,1,2.55l.19.48.89,2.12.3.68q.55,1.27,1.14,2.55a0,0,0,0,1,0,0c.39.83.79,1.66,1.21,2.5l.33.69c.36.7.71,1.4,1.08,2.1l.24.46c.44.82.9,1.66,1.36,2.49,0,.06.07.13.11.2l.23.4c.38.67.76,1.33,1.15,2l.38.63c.49.83,1,1.65,1.52,2.46l.24.38c.45.71.91,1.41,1.38,2.11l.45.68c.51.75,1,1.51,1.57,2.26,0,.07.09.13.13.19.58.81,1.17,1.62,1.77,2.42l.48.64c.5.65,1,1.31,1.52,2l.4.51c.64.79,1.28,1.59,1.94,2.37.14.17.28.35.43.5.54.65,1.1,1.3,1.66,1.94.19.2.36.41.54.61.7.78,1.41,1.57,2.13,2.34l.19.2c.67.71,1.35,1.42,2,2.13l.61.62c.66.67,1.34,1.34,2,2,.1.1.21.22.32.31.79.76,1.59,1.51,2.4,2.27l.63.56c.66.6,1.33,1.2,2,1.79.21.18.4.36.61.53.85.74,1.71,1.47,2.59,2.19l.51.42c.74.61,1.48,1.2,2.25,1.79.24.21.49.4.75.59.92.73,1.85,1.45,2.81,2.16Z"/><path class="cls-15" d="M96,300l-3.73-2.72s-42.42,45.08-61.08-13.05a127.11,127.11,0,0,1-4.71-36.71,165.87,165.87,0,0,1,8.2-47.79,218.44,218.44,0,0,1,15.39-36.25,190.85,190.85,0,0,1,11-18.29c.12-.16.22-.32.31-.44s.16-.23.23-.31l.14-.2s0-.07,0-.07C55.45,172.85,55,197.26,58,217.72a143.07,143.07,0,0,0,16.79,50.07,126.34,126.34,0,0,0,22.28,29,87.2,87.2,0,0,0,12.64,10.32l34.83-26.83-13.92,3.57c-24.1-17.91-38.37-38.93-46.17-60.49s-9.13-43.65-7.34-63.7a218,218,0,0,1,11.33-51.47,197.61,197.61,0,0,1,9.86-23.79A237,237,0,0,0,76,98a206.29,206.29,0,0,0-18.78,14.6,180.46,180.46,0,0,0-15.52,15.35,167.5,167.5,0,0,0-12.56,15.88A160.45,160.45,0,0,0,5.17,196a170.11,170.11,0,0,0-5.1,46.8,178.89,178.89,0,0,0,4.31,34.4c.09.44.19.85.29,1.26h0S18.53,372.56,96,300Z"/><path class="cls-16" d="M164.23,191.55l14.49-14.8,13.82,15.15-14.6,14.65L132.76,157.1c-7-7.68-19.31-2.54-19.48,8.16l-.64,41.33c-.15,9.44,9.58,15.37,17.2,10.47l6.68-4.28a3.31,3.31,0,0,1,5,3.06l-.37,23.94L151.1,229l.33-20.67c.11-6.92-6.71-11.53-12.59-8.51l-11.22,5.76a3.61,3.61,0,0,1-5.16-3.49l.34-25.59a3.57,3.57,0,0,1,6.18-2.59l39.72,42.41-22.88,24.21c-7.14,7.56-2.1,20.5,8,20.51l39,.06c8.92,0,14.36-10.39,9.62-18.39l-4.14-7a3.51,3.51,0,0,1,2.81-5.36l22.6,0L213.39,220l-19.51,0c-6.53,0-10.77,7.29-7.84,13.47l5.61,11.8a3.81,3.81,0,0,1-3.21,5.52l-24.16,0c-3.21,0-4.82-4.12-2.54-6.52l40.2-42.35,22.31,23.76c7.13,7.58,19.35,2.26,19.38-8.44l.12-41.34c0-9.44-9.78-15.22-17.34-10.22l-6.62,4.37a3.3,3.3,0,0,1-5-3l.06-23.94L205,154.05l-.06,20.67c0,6.92,6.85,11.43,12.69,8.33l11.15-5.92a3.61,3.61,0,0,1,5.2,3.41v25.59a3.58,3.58,0,0,1-6.16,2.68l-39.46-42.27,22.57-23.94c7.13-7.56,2.07-20.49-8-20.49h-39c-8.91,0-14.34,10.4-9.6,18.4l4.15,7a3.51,3.51,0,0,1-2.8,5.37H133l10.34,10.36h19.51c6.53,0,10.77-7.3,7.82-13.48L165.09,138a3.81,3.81,0,0,1,3.2-5.53l24.15-.06c3.22,0,4.83,4.11,2.55,6.51l-40.18,42.36"/><path class="cls-17" d="M166,191.55l14.1-14.21,13.45,14.55L179.38,206l-44-47.49c-6.83-7.38-18.79-2.44-19,7.83l-.63,39.7c-.14,9.07,9.32,14.75,16.74,10.06l6.5-4.11a3.22,3.22,0,0,1,4.88,2.93l-.36,23,9.68-10.35.31-19.85c.11-6.64-6.53-11.07-12.25-8.18L130.41,205a3.51,3.51,0,0,1-5-3.34l.33-24.58a3.48,3.48,0,0,1,6-2.49l38.65,40.74L148.12,238.6c-7,7.26-2,19.68,7.78,19.7l38,.05c8.68,0,14-10,9.37-17.66l-4-6.73a3.37,3.37,0,0,1,2.73-5.15l22,0-10.05-10-19,0c-6.36,0-10.49,7-7.63,12.93l5.45,11.34a3.65,3.65,0,0,1-3.12,5.3l-23.51,0a3.68,3.68,0,0,1-2.47-6.26l39.12-40.68,21.71,22.82c6.93,7.28,18.82,2.17,18.85-8.1l.12-39.7c0-9.08-9.51-14.63-16.87-9.83l-6.44,4.21a3.22,3.22,0,0,1-4.92-2.87l.07-23-9.55,10.5-.06,19.84c0,6.65,6.67,11,12.36,8l10.84-5.69a3.51,3.51,0,0,1,5.07,3.28v24.58a3.48,3.48,0,0,1-6,2.57l-38.41-40.6,22-23c6.95-7.27,2-19.68-7.8-19.68h-38c-8.68,0-14,10-9.34,17.67l4,6.72a3.37,3.37,0,0,1-2.73,5.15h-22l10.06,9.95h19c6.36,0,10.48-7,7.62-12.94l-5.47-11.33a3.66,3.66,0,0,1,3.12-5.31l23.51-.06A3.69,3.69,0,0,1,196,141l-39.09,40.68"/></g></g></svg>