<svg width="116" height="121" viewBox="0 0 116 121" fill="none" xmlns="http://www.w3.org/2000/svg">
    <mask id="mask0_111_3593" style="mask-type:luminance" maskUnits="userSpaceOnUse" x="0" y="0" width="116" height="121">
        <path d="M58.3096 47.9101L70.3796 60.9601L57.6196 73.5801L45.6196 60.6601L58.3096 47.9101ZM45.3596 0.830078C37.6196 0.830078 32.8396 9.83008 36.9796 16.6801L40.5996 22.6801C40.8872 23.128 41.0505 23.6444 41.0726 24.1762C41.0948 24.7081 40.975 25.2362 40.7256 25.7065C40.4762 26.1768 40.1062 26.5722 39.6535 26.8523C39.2008 27.1323 38.6818 27.2869 38.1496 27.3001H18.4296L27.4296 36.2301H44.4296C50.1296 36.2301 53.8296 29.9401 51.2596 24.6201L46.3596 14.4601C46.1139 13.968 45.9962 13.4219 46.0175 12.8723C46.0388 12.3226 46.1984 11.7873 46.4816 11.3157C46.7647 10.8441 47.1622 10.4516 47.6373 10.1744C48.1124 9.89728 48.6498 9.74444 49.1996 9.73008L70.2896 9.67008C70.9278 9.69854 71.5442 9.91107 72.0643 10.282C72.5844 10.653 72.986 11.1666 73.2207 11.7607C73.4554 12.3549 73.5132 13.0043 73.387 13.6305C73.2608 14.2568 72.9561 14.8332 72.5096 15.2901L37.4396 51.8301L18.1896 30.9801C12.0596 24.3601 1.32964 28.7901 1.18964 37.9801L0.619639 73.6201C0.489639 81.7501 8.97964 86.8501 15.6196 82.6201L21.4496 78.9301C21.8986 78.6574 22.4136 78.5128 22.9388 78.5117C23.4641 78.5107 23.9796 78.6533 24.4296 78.9241C24.8797 79.195 25.2471 79.5837 25.4921 80.0483C25.7371 80.513 25.8503 81.0357 25.8196 81.5601L25.4996 102.19L34.1796 92.9001L34.4596 75.1001C34.5596 69.1001 28.6096 65.1601 23.4596 67.7601L13.6596 72.7601C13.1672 72.9967 12.6216 73.1011 12.0766 73.0631C11.5316 73.0252 11.0058 72.8461 10.5509 72.5435C10.096 72.2409 9.72764 71.8252 9.48197 71.3372C9.2363 70.8492 9.12177 70.3057 9.14964 69.7601L9.44964 47.7601C9.43101 47.1262 9.60596 46.5018 9.95117 45.9699C10.2964 45.438 10.7955 45.0239 11.382 44.7828C11.9684 44.5417 12.6145 44.485 13.234 44.6203C13.8535 44.7556 14.4171 45.0764 14.8496 45.5401L49.5596 82.0001L29.6196 102.83C23.3796 109.34 27.7796 120.49 36.6196 120.5H70.6796C78.4596 120.5 83.2096 111.56 79.0796 104.66L75.4596 98.6601C75.172 98.2122 75.0088 97.6958 74.9866 97.1639C74.9645 96.6321 75.0843 96.1039 75.3337 95.6336C75.583 95.1634 75.9531 94.7679 76.4058 94.4879C76.8584 94.2078 77.3775 94.0533 77.9096 94.0401H97.6396L88.6396 85.1001H71.6396C65.9296 85.1001 62.2296 91.3701 64.7896 96.7001L69.6196 106.91C69.8682 107.401 69.9894 107.946 69.9721 108.495C69.9549 109.045 69.7997 109.582 69.5209 110.056C69.2421 110.53 68.8486 110.926 68.3765 111.208C67.9045 111.49 67.3691 111.649 66.8196 111.67H45.7396C45.1014 111.642 44.4851 111.429 43.965 111.058C43.4449 110.687 43.0433 110.174 42.8086 109.579C42.5739 108.985 42.5161 108.336 42.6423 107.71C42.7685 107.083 43.0732 106.507 43.5196 106.05L78.6196 69.5901L98.0596 90.0601C104.27 96.5901 114.94 92.0601 114.97 82.7901L115.07 47.1801C115.07 39.0401 106.54 34.0601 99.9396 38.3701L94.1596 42.1401C93.7137 42.4164 93.2011 42.5661 92.6766 42.5732C92.152 42.5803 91.6355 42.4445 91.1823 42.1804C90.7291 41.9163 90.3563 41.5338 90.1039 41.074C89.8515 40.6141 89.729 40.0942 89.7496 39.5701L89.8096 18.9401L81.2496 28.3501L81.1896 46.1601C81.1896 52.1601 87.1896 56.0101 92.2796 53.3301L102.01 48.2401C102.498 47.9966 103.04 47.8843 103.585 47.9143C104.129 47.9443 104.656 48.1156 105.115 48.4113C105.573 48.7069 105.946 49.1168 106.198 49.6006C106.449 50.0843 106.571 50.6252 106.55 51.1701V73.1701C106.578 73.8051 106.411 74.4335 106.073 74.9718C105.735 75.51 105.242 75.9327 104.658 76.1834C104.074 76.4342 103.427 76.5012 102.804 76.3756C102.181 76.2499 101.611 75.9376 101.17 75.4801L66.7196 39.1101L86.4196 18.4901C92.6196 11.9701 88.2296 0.830078 79.4096 0.830078H45.3596Z" fill="white"/>
    </mask>
    <g mask="url(#mask0_111_3593)">
        <path d="M13.8937 -35.999L-38.001 106.581L101.684 157.422L153.579 14.8423L13.8937 -35.999Z" fill="url(#paint0_linear_111_3593)"/>
    </g>
    <defs>
        <linearGradient id="paint0_linear_111_3593" x1="115.989" y1="80.8695" x2="-0.0822173" y2="38.6232" gradientUnits="userSpaceOnUse">
            <stop stop-color="#282E4F"/>
            <stop offset="0.17" stop-color="#295E9C"/>
            <stop offset="0.39" stop-color="#8D9CC6"/>
            <stop offset="0.51" stop-color="#697FAF"/>
            <stop offset="0.81" stop-color="#315186"/>
            <stop offset="1" stop-color="#2A2D4D"/>
        </linearGradient>
    </defs>
</svg>
